<svg xmlns="http://www.w3.org/2000/svg" xmlns:xlink="http://www.w3.org/1999/xlink" xmlns:fi="http://pattern.flaticon.com/" x="0" y="0" width="700" height="350" viewBox="0 0 700 350"><rect x="0px" y="0px" width="100%" height="100%" opacity="1" fill="#ffffff"/><defs><g transform="matrix(0.1697916491523753 0.04549553527192747 -0.04549553527192747 0.1697916491523753 318.1799152316604 -55.11140396457503)" id="L1_0"><path d="M93.965,237.583v138.508c0,12.235-4.573,24.027-12.822,33.063l-22.913,25.1  c-13.125,14.378-14.151,36.065-2.441,51.617l0,0c10.942,14.533,30.237,19.977,47.162,13.307l14.149-5.577  c15.221-5.999,31.945-7.12,47.804-3.101c20.515,5.198,53.189,11.5,91.027,11.5s70.513-6.302,91.027-11.499  c15.86-4.018,32.583-2.898,47.804,3.101l14.149,5.577c16.925,6.67,36.22,1.226,47.162-13.307l0.158-0.21  c11.639-15.459,10.704-36.995-2.232-51.386l-22.636-25.184c-8.092-9.002-12.568-20.679-12.568-32.783V237.583  c0-89.699-72.716-162.415-162.415-162.415l0,0C166.68,75.168,93.965,147.884,93.965,237.583z" fill="#bded7e"/><g><circle cx="361" cy="30" r="20" fill="#c8d0ff"/><circle cx="151" cy="30" r="20" fill="#c8d0ff"/></g><circle cx="256" cy="256" r="68" fill="#ffffff"/><circle cx="256" cy="256" r="24" fill="#fe7a77"/><path d="M418.79,298c-2.63,0-5.199,1.069-7.069,2.93c-1.86,1.86-2.931,4.44-2.931,7.07s1.07,5.21,2.931,7.069  c1.87,1.86,4.439,2.931,7.069,2.931c2.631,0,5.211-1.07,7.07-2.931c1.87-1.859,2.93-4.43,2.93-7.069c0-2.641-1.06-5.21-2.93-7.07  C424,299.069,421.43,298,418.79,298z"/><path d="M461.437,427.592l-22.638-25.186c-6.451-7.178-10.005-16.446-10.005-26.098v-27.093c0-5.522-4.478-10-10-10s-10,4.478-10,10  v27.093c0,14.597,5.374,28.613,15.131,39.468l22.637,25.185c9.714,10.808,10.421,27.077,1.664,38.707l-0.142,0.189  c-8.208,10.902-22.808,15.023-35.507,10.018l-14.148-5.576c-17.334-6.831-35.98-8.04-53.927-3.491  C324.348,485.913,292.621,492,255.931,492s-68.417-6.087-88.57-11.192c-17.946-4.547-36.594-3.341-53.928,3.491l-14.148,5.576  c-12.697,5.005-27.299,0.884-35.506-10.018c-8.811-11.701-8.037-28.044,1.838-38.86l22.911-25.101  c9.954-10.902,15.437-25.039,15.437-39.805V237.583c0-84.042,68.373-152.415,152.416-152.415  c84.041,0,152.414,68.373,152.414,152.415V268.5c0,5.522,4.478,10,10,10s10-4.478,10-10v-30.917  c0-51.099-22.353-97.069-57.784-128.669V58.28c11.639-4.128,20-15.243,20-28.28c0-16.542-13.458-30-30-30s-30,13.458-30,30  c0,13.036,8.361,24.152,20,28.28v35.253c-27.184-17.918-59.708-28.365-94.631-28.365c-35.239,0-68.037,10.635-95.369,28.852V58.28  c11.639-4.128,20-15.243,20-28.28c0-16.542-13.458-30-30-30s-30,13.458-30,30c0,13.036,8.361,24.152,20,28.28v51.289  c-35.005,31.579-57.046,77.269-57.046,128.014v138.509c0,9.764-3.625,19.111-10.207,26.32l-22.912,25.101  c-16.357,17.918-17.638,44.991-3.045,64.374c13.597,18.061,37.783,24.887,58.818,16.596l14.148-5.576  c13.41-5.284,27.822-6.222,41.682-2.712C183.706,505.58,217.179,512,255.931,512c38.751,0,72.226-6.42,93.483-11.806  c13.859-3.51,28.271-2.573,41.682,2.712l14.148,5.576c21.035,8.291,45.219,1.466,58.834-16.616l0.141-0.189  C478.699,472.446,477.529,445.495,461.437,427.592z M361.01,20c5.514,0,10,4.486,10,10s-4.486,10-10,10s-10-4.486-10-10  S355.497,20,361.01,20z M151.01,20c5.514,0,10,4.486,10,10s-4.486,10-10,10s-10-4.486-10-10S145.497,20,151.01,20z"/><path d="M311.165,200.846c-30.412-30.412-79.896-30.412-110.309,0s-30.412,79.896,0,110.309  c15.206,15.206,35.181,22.809,55.154,22.809s39.948-7.603,55.154-22.809C341.577,280.742,341.577,231.258,311.165,200.846z   M297.022,297.012c-22.613,22.615-59.41,22.615-82.023,0c-22.614-22.614-22.614-59.409,0-82.023  c11.307-11.308,26.159-16.961,41.012-16.961c14.853,0,29.705,5.653,41.012,16.961C319.635,237.603,319.635,274.397,297.022,297.012z  "/><path d="M231.968,231.959c-13.255,13.256-13.255,34.826,0.001,48.083c6.628,6.628,15.334,9.941,24.041,9.941  c8.707,0,17.413-3.313,24.041-9.941c0.001,0,0.001,0,0.001-0.001c13.255-13.256,13.255-34.826-0.001-48.083  C266.796,218.703,245.227,218.702,231.968,231.959z M265.911,265.899c-5.461,5.459-14.343,5.458-19.8,0.001  c-5.458-5.459-5.458-14.342-0.001-19.8c2.73-2.729,6.315-4.094,9.9-4.094s7.171,1.364,9.899,4.093  C271.368,251.559,271.368,260.441,265.911,265.899z"/><path d="M256.915,132.323c5.522,0,10-4.478,10-10s-4.478-10-10-10l-0.439-0.001c-5.522,0-10,4.478-10,10s4.478,10,10,10  L256.915,132.323z"/><path d="M344.051,171.953c1.977,2.248,4.738,3.396,7.514,3.396c2.345,0,4.7-0.82,6.6-2.49c4.147-3.647,4.553-9.966,0.906-14.113  c-15.228-17.316-34.686-30.583-56.272-38.364c-5.198-1.875-10.926,0.82-12.799,6.016c-1.873,5.196,0.82,10.926,6.016,12.799  C314.436,145.837,331.047,157.164,344.051,171.953z"/><path d="M303.854,379.144c-12.779,12.78-29.771,19.818-47.844,19.818s-35.064-7.038-47.844-19.818  c-3.904-3.903-10.234-3.905-14.143,0c-3.905,3.905-3.905,10.237,0,14.143c16.557,16.557,38.57,25.676,61.986,25.676  s45.43-9.119,61.986-25.676c3.905-3.905,3.905-10.237,0-14.143C314.09,375.239,307.76,375.239,303.854,379.144z"/></g><g transform="matrix(0.0390625 0 0 0.0390625 77.5 340)" id="L1_1"><path d="M135.966,245.589c24.303,40.953,68.959,68.41,120.034,68.41s95.731-27.457,120.034-68.41H135.966z" fill="#ffe5bb"/><ellipse cx="255px" cy="174px" rx="245px" ry="81px" fill="#eceeff"/><path d="M256,10L256,10C200.771,10,156,54.771,156,109.999v35.243c0,8.378,5.625,15.712,13.716,17.885l0,0  c56.521,15.177,116.045,15.177,172.567,0l0,0c8.091-2.173,13.716-9.507,13.716-17.885v-35.243C355.999,54.771,311.228,10,256,10z" fill="#c8d0ff"/><rect x="19px" y="333px" width="46px" height="46px" transform="matrix(-0.7071 0.7071 -0.7071 -0.7071 325.804 579.049)" fill="#eceeff"/><path d="M466.193,120.123c-25.557-12.947-60.728-23.232-101.968-29.852C354.901,39,309.921,0,256,0s-98.901,39-108.224,90.271  c-41.233,6.618-76.398,16.901-101.952,29.844C7.95,139.296,0.001,160.021,0.001,174.03c0,26.928,27.28,50.251,78.891,67.448  c15.454,5.149,32.554,9.54,50.883,13.127c12.842,20.194,30.44,37.14,51.139,49.189c22.707,13.218,48.672,20.205,75.087,20.205  s52.38-6.987,75.088-20.205c20.698-12.049,38.296-28.995,51.139-49.189c18.329-3.587,35.429-7.978,50.883-13.127  c51.61-17.197,78.891-40.521,78.891-67.448C511.998,160.024,504.05,139.302,466.193,120.123z M166,109.999  C166,60.374,206.374,20,256,20s89.999,40.374,89.999,89.999v35.243c0,3.846-2.595,7.229-6.31,8.227  c-54.751,14.702-112.629,14.703-167.38,0c-3.715-0.998-6.31-4.381-6.31-8.227L166,109.999L166,109.999z M256,303.998  c-37.632,0-73.345-16.67-97.725-44.608c30.542,4.33,63.627,6.608,97.725,6.608s67.184-2.277,97.725-6.608  C329.343,287.328,293.631,303.998,256,303.998z M426.786,222.503c-15.641,5.212-33.079,9.618-51.858,13.156  c-0.494,0.055-0.983,0.14-1.462,0.268C338.005,242.5,297.846,245.999,256,245.999c-41.848,0-82.01-3.499-117.47-10.072  c-0.475-0.126-0.96-0.21-1.449-0.265c-18.782-3.539-36.223-7.945-51.867-13.158c-40.834-13.606-65.213-31.727-65.213-48.474  c0-20.542,39.525-48.552,125.999-63.197v34.409c0,12.877,8.686,24.203,21.122,27.542c29.072,7.807,58.976,11.71,88.877,11.71  s59.806-3.903,88.877-11.71c12.437-3.34,21.122-14.666,21.122-27.542v-34.409c86.475,14.645,125.999,42.656,125.999,63.197  C491.998,190.776,467.62,208.897,426.786,222.503z"/><path d="M450.344,315.558c-16.542,0-30,13.458-30,30s13.458,30,30,30s30-13.458,30-30S466.886,315.558,450.344,315.558z   M450.344,355.558c-5.514,0-10-4.486-10-10s4.486-10,10-10s10,4.486,10,10S455.858,355.558,450.344,355.558z"/><path d="M256,206.999c-2.63,0-5.21,1.07-7.07,2.93c-1.86,1.86-2.93,4.44-2.93,7.07s1.069,5.21,2.93,7.07  c1.861,1.86,4.44,2.93,7.07,2.93s5.21-1.07,7.069-2.93c1.86-1.86,2.931-4.44,2.931-7.07s-1.07-5.21-2.931-7.07  C261.21,208.069,258.629,206.999,256,206.999z"/><path d="M74.171,152.939c-2.64,0-5.21,1.07-7.07,2.93c-1.859,1.86-2.93,4.43-2.93,7.07c0,2.63,1.07,5.21,2.93,7.07  c1.86,1.86,4.431,2.93,7.07,2.93c2.63,0,5.2-1.07,7.07-2.93c1.859-1.86,2.93-4.44,2.93-7.07c0-2.64-1.07-5.21-2.93-7.07  C79.38,154.009,76.8,152.939,74.171,152.939z"/><path d="M437.829,152.939c-2.63,0-5.21,1.06-7.07,2.92c-1.86,1.87-2.93,4.44-2.93,7.08c0,2.63,1.069,5.21,2.93,7.07  s4.44,2.93,7.07,2.93c2.64,0,5.21-1.07,7.069-2.93c1.86-1.86,2.931-4.44,2.931-7.07c0-2.64-1.07-5.21-2.931-7.08  C443.039,153.999,440.468,152.939,437.829,152.939z"/><path d="M363.669,196.379c-2.641,0-5.21,1.06-7.07,2.92c-1.87,1.87-2.93,4.44-2.93,7.07c0,2.64,1.06,5.22,2.93,7.08  c1.86,1.86,4.43,2.93,7.07,2.93c2.63,0,5.21-1.07,7.07-2.93c1.859-1.87,2.93-4.44,2.93-7.08c0-2.62-1.07-5.2-2.93-7.07  C368.869,197.439,366.298,196.379,363.669,196.379z"/><path d="M148.33,196.369c-2.63,0-5.21,1.07-7.07,2.93c-1.86,1.87-2.93,4.44-2.93,7.07c0,2.64,1.069,5.22,2.93,7.07  c1.86,1.87,4.44,2.94,7.07,2.94c2.64,0,5.21-1.07,7.069-2.94c1.87-1.86,2.931-4.43,2.931-7.07c0-2.62-1.061-5.2-2.931-7.07  C153.54,197.439,150.969,196.369,148.33,196.369z"/><path d="M196.333,119.966c5.523,0,10-4.511,10-10.034l0.001-0.184c0-5.523-4.478-9.967-10-9.967c-5.523,0-10,4.511-10,10.034  l-0.001,0.184C186.333,115.522,190.81,119.966,196.333,119.966z"/><path d="M201.707,83.282c1.768,1.273,3.811,1.886,5.835,1.886c3.106,0,6.169-1.444,8.123-4.157  C224.99,68.063,240.069,60.333,256,60.333c5.522,0,10-4.477,10-10s-4.478-10-10-10c-22.345,0-43.49,10.837-56.563,28.99  C196.209,73.805,197.224,80.054,201.707,83.282z"/><path d="M159.492,299.411c-5.176-1.931-10.935,0.704-12.862,5.878l-72,193.216c-1.929,5.176,0.703,10.935,5.878,12.862  C81.66,511.797,82.84,512,84,512c4.056,0,7.872-2.487,9.371-6.511l72-193.216C167.298,307.098,164.667,301.339,159.492,299.411z"/><path d="M365.369,305.289c-1.928-5.175-7.685-7.81-12.862-5.878c-5.175,1.928-7.807,7.687-5.878,12.862l72,193.216  c1.499,4.024,5.314,6.511,9.371,6.511c1.16,0,2.34-0.203,3.491-0.633c5.175-1.928,7.807-7.687,5.878-12.862L365.369,305.289z"/><path d="M256,387.913c-5.522,0-10,4.478-10,10v77.085c0,5.522,4.478,10,10,10c5.522,0,10-4.478,10-10v-77.085  C266,392.391,261.522,387.913,256,387.913z"/><path d="M256,346.998c-2.63,0-5.21,1.069-7.07,2.93c-1.86,1.861-2.93,4.44-2.93,7.07c0,2.63,1.069,5.21,2.93,7.069  c1.86,1.86,4.44,2.931,7.07,2.931s5.21-1.07,7.069-2.931c1.86-1.859,2.931-4.439,2.931-7.069c0-2.63-1.07-5.21-2.931-7.07  C261.21,348.067,258.629,346.998,256,346.998z"/><path d="M83.034,349.927l-32.98-32.981c-1.875-1.875-4.419-2.929-7.071-2.929s-5.195,1.054-7.071,2.929L2.929,349.927  c-3.905,3.905-3.905,10.237,0,14.143l32.981,32.981c1.876,1.875,4.419,2.929,7.071,2.929s5.196-1.054,7.071-2.929l32.98-32.981  C86.939,360.164,86.939,353.832,83.034,349.927z M42.982,375.837l-18.839-18.839l18.839-18.839l18.839,18.839L42.982,375.837z"/><path d="M462.634,40h9.682v10c0,5.523,4.478,10,10,10s10-4.477,10-10V40h9.683c5.522,0,10-4.477,10-10s-4.478-10-10-10h-9.683V10  c0-5.523-4.478-10-10-10s-10,4.477-10,10v10h-9.682c-5.522,0-10,4.477-10,10S457.112,40,462.634,40z"/><path d="M64.001,51c2.63,0,5.21-1.07,7.069-2.93c1.86-1.86,2.931-4.44,2.931-7.07s-1.07-5.21-2.931-7.07  C69.211,32.07,66.63,31,64.001,31s-5.21,1.07-7.07,2.93s-2.93,4.44-2.93,7.07c0,2.64,1.069,5.21,2.93,7.07  C58.792,49.93,61.371,51,64.001,51z"/><path d="M501.998,451.936c-2.63,0-5.21,1.07-7.07,2.931c-1.86,1.859-2.93,4.439-2.93,7.069c0,2.63,1.069,5.21,2.93,7.07  c1.861,1.86,4.44,2.93,7.07,2.93c2.63,0,5.21-1.069,7.069-2.93c1.86-1.86,2.931-4.44,2.931-7.07c0-2.63-1.07-5.21-2.931-7.069  C507.208,453.007,504.627,451.936,501.998,451.936z"/></g><g transform="matrix(0.078125 0 0 0.078125 155 330)" id="L1_2"><circle cx="87" cy="54" r="23" fill="#9aa9ff"/><g><circle cx="452" cy="59" r="49" fill="#ffe5bb"/><path d="M71.657,351.184c-0.425,0.425-0.84,0.855-1.249,1.289C28.876,395.665,10,501.936,10,501.936   s104.534-20.608,147.732-62.128c0.436-0.411,0.868-0.828,1.295-1.255L71.657,351.184z" fill="#ffe5bb"/></g><path d="M116.162,395.69l64.137,64.137l120.945-120.945c54.162-54.162,82.311-129.068,77.221-205.495l0,0  l0.084,0.084l0,0c-76.428-5.089-151.333,23.059-205.495,77.221L52.109,331.637l64.137,64.137L116.162,395.69z" fill="#ffffff"/><rect x="108px" y="288px" width="49px" height="181px" transform="matrix(-0.7071 0.7071 -0.7071 -0.7071 495.1226 552.4697)" fill="#acb8ff"/><g><path d="M268.789,149.379l93.767,93.767c12.81-34.652,18.413-71.978,15.913-109.681   C340.767,130.966,303.44,136.569,268.789,149.379z" fill="#fe7a77"/><path d="M201.34,480.868l21.069,21.068l39.73-39.73c17.792-17.792,27.039-42.398,25.367-67.504l0,0   l0.028,0.028l0,0c-25.106-1.672-49.712,7.575-67.504,25.367l-39.73,39.73l21.068,21.068L201.34,480.868z" fill="#fe7a77"/><path d="M31.04,310.568l21.068,21.068l39.73-39.73c17.792-17.792,27.039-42.398,25.367-67.504l0,0   l0.028,0.028l0,0c-25.106-1.672-49.712,7.575-67.504,25.367l-39.73,39.73l21.068,21.068L31.04,310.568z" fill="#fe7a77"/></g><circle cx="219" cy="291" r="51" fill="#eceeff"/><circle cx="426" cy="426" r="68" fill="#c8d0ff"/><path d="M87.99,88.09c18.746,0,33.996-15.25,33.996-33.996s-15.25-33.996-33.996-33.996s-33.996,15.25-33.996,33.996  S69.244,88.09,87.99,88.09z M87.99,40.096c7.719,0,13.998,6.279,13.998,13.998S95.709,68.092,87.99,68.092  s-13.998-6.279-13.998-13.998S80.271,40.096,87.99,40.096z"/><path d="M388.53,134.079c0.171-2.804-0.845-5.614-2.91-7.68l-0.083-0.083c-2.065-2.064-4.872-3.081-7.68-2.91  c-78.842-4.874-155.989,24.332-211.872,80.215l-39.449,39.448c0.829-6.205,1.069-12.521,0.677-18.871  c-0.06-2.528-1.073-5.003-2.937-6.866c-1.939-1.939-4.531-2.935-7.167-2.929c-27.727-1.616-54.806,8.678-74.451,28.322l-39.73,39.73  c-3.905,3.905-3.905,10.236,0,14.141l54.943,54.943C18.484,399.123,0.913,495.914,0.155,500.188  c-0.577,3.25,0.486,6.574,2.842,8.886c1.887,1.852,4.409,2.862,7.003,2.862c0.643,0,1.291-0.062,1.935-0.188  c4.201-0.829,99.438-19.971,146.748-59.396l56.657,56.657c1.953,1.952,4.511,2.929,7.07,2.929c2.559,0,5.117-0.977,7.07-2.929  l39.73-39.73c19.723-19.723,30.022-46.955,28.303-74.778c-0.06-2.528-1.073-5.003-2.937-6.866c-1.917-1.916-4.474-2.929-7.073-2.929  c-0.031,0-0.063,0-0.094,0c-6.238-0.365-12.443-0.12-18.54,0.693l39.445-39.445C364.199,290.067,393.391,212.917,388.53,134.079z   M368.928,143.007c0.877,27.875-2.836,55.425-10.723,81.648l-70.928-70.928C313.506,145.836,341.059,142.124,368.928,143.007z   M66.249,331.637l20.149-20.149l114.05,114.049l-20.149,20.149L66.249,331.637z M38.111,303.497L24.14,289.526l32.66-32.66  c13.553-13.553,31.566-21.505,50.49-22.52c-1.017,18.923-8.969,36.937-22.52,50.49l-32.66,32.66l-13.971-13.971L38.111,303.497z   M22.941,488.752c6.342-28.261,22.489-89.689,49.136-123.007l29.123,29.123l-24.189,24.189c-3.905,3.905-3.905,10.236,0,14.141  c1.953,1.952,4.511,2.929,7.07,2.929c2.559,0,5.117-0.977,7.07-2.929l24.189-24.189l29.139,29.139  C111.339,464.889,50.879,481.942,22.941,488.752z M277.59,404.646c-1.017,18.923-8.969,36.937-22.52,50.49l-32.66,32.66  l-13.971-13.971l-0.027-0.027l-13.971-13.971l32.66-32.66C240.652,413.613,258.666,405.661,277.59,404.646z M214.59,411.395  L100.54,297.346l79.585-79.585c24.853-24.854,54.252-44.011,86.177-56.729l84.599,84.599  c-12.716,31.927-31.872,61.323-56.727,86.179L214.59,411.395z"/><path d="M175.914,248.456c-23.948,23.949-23.948,62.916,0,86.865c11.602,11.602,27.025,17.99,43.432,17.99  s31.831-6.389,43.432-17.99c23.948-23.949,23.948-62.916,0-86.865C238.83,224.508,199.861,224.508,175.914,248.456z   M177.921,291.889c0-11.064,4.309-21.467,12.133-29.291c5.408-5.409,12.051-9.136,19.293-10.923v80.428  c-7.241-1.787-13.883-5.513-19.293-10.923C182.231,313.356,177.921,302.954,177.921,291.889z M248.637,321.181  c-5.408,5.409-12.051,9.136-19.293,10.923v-80.428c7.241,1.787,13.883,5.513,19.293,10.923c7.824,7.824,12.133,18.227,12.133,29.291  C260.77,302.954,256.461,313.356,248.637,321.181z"/><path d="M59.432,440.774c-2.63,0-5.209,1.069-7.068,2.93c-1.86,1.86-2.931,4.439-2.931,7.069c0,2.63,1.07,5.209,2.931,7.068  c1.859,1.87,4.438,2.931,7.068,2.931c2.63,0,5.209-1.061,7.069-2.931c1.86-1.859,2.93-4.438,2.93-7.068  c0-2.63-1.069-5.209-2.93-7.069S62.062,440.774,59.432,440.774z"/><path d="M452.443,118.985c32.805,0,59.492-26.688,59.492-59.492S485.247,0,452.443,0s-59.492,26.688-59.492,59.492  S419.639,118.985,452.443,118.985z M452.443,19.997c21.777,0,39.495,17.718,39.495,39.495s-17.718,39.495-39.495,39.495  c-21.777,0-39.495-17.718-39.495-39.495S430.665,19.997,452.443,19.997z"/><path d="M284.465,59.492c0,5.521,4.477,9.999,9.999,9.999h74.55c5.521,0,9.999-4.477,9.999-9.999s-4.477-9.999-9.999-9.999h-74.55  C288.941,49.494,284.465,53.971,284.465,59.492z"/><path d="M248.898,52.423c-1.86,1.86-2.93,4.439-2.93,7.069c0,2.63,1.069,5.209,2.93,7.068c1.86,1.86,4.439,2.931,7.069,2.931  s5.209-1.07,7.068-2.931c1.86-1.859,2.931-4.438,2.931-7.068c0-2.63-1.07-5.209-2.931-7.069c-1.859-1.86-4.438-2.93-7.068-2.93  S250.759,50.563,248.898,52.423z"/><path d="M232.434,19.997h89.085c5.521,0,9.999-4.477,9.999-9.999S327.04,0,321.519,0h-89.085c-5.521,0-9.999,4.477-9.999,9.999  S226.912,19.997,232.434,19.997z"/><path d="M505.207,347.915c-7.038-7.04-21.7-12.115-51.578,3.671c-0.582,0.308-1.119,0.668-1.613,1.066  c-7.986-2.759-16.544-4.277-25.455-4.277c-43.112,0-78.186,35.075-78.186,78.186c0,9.075,1.571,17.787,4.427,25.898  c-0.783,0.749-1.463,1.631-1.986,2.649c-14.867,28.939-9.784,43.219-2.902,50.1c4.699,4.699,10.856,6.795,18.013,6.794  c10.247-0.001,22.539-4.308,35.505-11.421c7.893,2.687,16.339,4.166,25.129,4.166c43.112,0,78.186-35.075,78.186-78.186  c0-8.788-1.479-17.232-4.165-25.124C512.662,379.415,516.636,359.344,505.207,347.915z M491.066,362.055  c1.212,1.212,1.755,6.817-2.246,17.281c-4.308-5.666-9.37-10.728-15.036-15.036C484.202,360.307,489.818,360.803,491.066,362.055z   M426.561,368.371c22.46,0,41.975,12.799,51.67,31.479c-8.748,13.96-20.889,28.92-35.175,43.206  c-14.285,14.285-29.246,26.427-43.206,35.175c-18.68-9.696-31.479-29.21-31.479-51.67  C368.372,394.474,394.475,368.371,426.561,368.371z M362.055,491.066c-1.226-1.226-1.746-6.837,2.248-17.278  c4.307,5.665,9.368,10.725,15.032,15.032C368.872,492.818,363.266,492.276,362.055,491.066z M484.749,426.56  c0,32.086-26.103,58.189-58.189,58.189c-0.303,0-0.602-0.018-0.904-0.023c10.869-8.177,21.632-17.621,31.541-27.529  c9.907-9.908,19.354-20.668,27.529-31.535C484.731,425.962,484.749,426.259,484.749,426.56z"/><path d="M436.57,245.969c-5.521,0-9.999,4.477-9.999,9.999s4.477,9.999,9.999,9.999h65.367c5.521,0,9.999-4.477,9.999-9.999  s-4.477-9.999-9.999-9.999H436.57z"/><path d="M89.614,127.984c0,5.521,4.477,9.999,9.999,9.999h65.367c5.521,0,9.999-4.477,9.999-9.999s-4.477-9.999-9.999-9.999H99.613  C94.091,117.985,89.614,122.462,89.614,127.984z"/><path d="M31.015,137.982h32.684c5.521,0,9.999-4.477,9.999-9.999s-4.477-9.999-9.999-9.999H31.015c-5.521,0-9.999,4.477-9.999,9.999  S25.494,137.982,31.015,137.982z"/></g><g transform="matrix(0.078125 0 0 0.078125 67.5 67.5)" id="L1_3"><path d="M283.58,10.247L55.185,238.642c-60.247,60.247-60.247,157.926,0,218.173l0,0  c60.247,60.247,157.926,60.247,218.172,0l228.479-228.479L502,10L283.58,10.247z" fill="#ffedd1"/><path d="M164.266,461.733c-62.96,0-114-51.04-114-114s51.04-114,114-114s114,51.04,114,114  S227.227,461.733,164.266,461.733z" fill="#ffd189"/><g><path d="M169.047,437.333c0-19.771-16.028-35.8-35.8-35.8s-35.8,16.028-35.8,35.8   c0,0.962,0.049,1.913,0.124,2.856c17.559,12.689,38.874,20.496,61.961,21.439C165.436,455.245,169.047,446.712,169.047,437.333z" fill="#ffedd1"/><circle cx="204" cy="328" r="28" fill="#ffedd1"/></g><path d="M249.134,100.381c1.953,1.952,4.512,2.929,7.071,2.929s5.118-0.977,7.071-2.929l57.174-57.174  c3.905-3.905,3.905-10.237,0-14.143c-3.906-3.904-10.236-3.904-14.143,0l-57.174,57.174  C245.229,90.143,245.229,96.475,249.134,100.381z"/><path d="M209.646,202.905c1.953,1.952,4.512,2.929,7.071,2.929s5.118-0.977,7.071-2.929L409.614,17.079  c3.905-3.905,3.905-10.237,0-14.143c-3.906-3.904-10.236-3.904-14.143,0L209.646,188.763C205.74,192.668,205.74,199,209.646,202.905  z"/><path d="M373.241,138.759c1.953,1.952,4.512,2.929,7.071,2.929s5.118-0.977,7.071-2.929L509.071,17.071  c3.905-3.905,3.905-10.237,0-14.143c-3.906-3.904-10.236-3.904-14.143,0L373.241,124.616  C369.336,128.521,369.336,134.853,373.241,138.759z"/><path d="M360.149,165.99c1.86-1.86,2.931-4.44,2.931-7.07c0-2.64-1.07-5.21-2.931-7.07c-1.859-1.859-4.439-2.93-7.069-2.93  s-5.21,1.07-7.07,2.93c-1.86,1.86-2.93,4.431-2.93,7.07c0,2.63,1.069,5.21,2.93,7.07c1.86,1.859,4.44,2.93,7.07,2.93  S358.29,167.849,360.149,165.99z"/><path d="M501.84,218.34c-2.63,0-5.21,1.06-7.07,2.92c-1.87,1.87-2.93,4.44-2.93,7.07c0,2.64,1.06,5.21,2.93,7.08  c1.86,1.859,4.431,2.93,7.07,2.93c2.63,0,5.21-1.07,7.07-2.93c1.859-1.87,2.92-4.44,2.92-7.08c0-2.63-1.061-5.2-2.92-7.07  C507.04,219.399,504.47,218.34,501.84,218.34z"/><path d="M470.515,245.515L266.286,449.744c-56.25,56.251-147.778,56.252-204.03-0.001c-56.251-56.251-56.251-147.778,0-204.029  L290.651,17.318c3.905-3.905,3.905-10.237,0-14.143c-3.906-3.904-10.236-3.904-14.143,0L48.113,231.571  C17.087,262.598,0,303.85,0,347.728c0,43.879,17.088,85.131,48.114,116.158C79.141,494.913,120.393,512,164.271,512  s85.131-17.087,116.157-48.113l204.229-204.229c3.905-3.905,3.905-10.237,0-14.143C480.751,241.61,474.421,241.61,470.515,245.515z"/><path d="M40.267,347.733c0,68.374,55.626,124,124,124s124-55.626,124-124s-55.626-124-124-124S40.267,279.359,40.267,347.733z   M154.249,451.249c-17.106-1.643-33.014-7.447-46.699-16.385c1.131-13.052,12.109-23.33,25.45-23.33  c14.09,0,25.553,11.463,25.553,25.553C158.553,442.145,157.029,447.076,154.249,451.249z M268.267,347.733  c0,53.255-40.239,97.282-91.908,103.293c1.439-4.476,2.194-9.178,2.194-13.94c0-25.118-20.435-45.553-45.553-45.553  c-19.418,0-36.027,12.217-42.57,29.365c-18.635-18.804-30.163-44.662-30.163-73.165c0-30.168,12.916-57.372,33.503-76.386  c9.035,0.808,16.144,8.411,16.144,17.653c0,9.778-7.955,17.733-17.733,17.733c-5.522,0-10,4.478-10,10s4.478,10,10,10  c20.807,0,37.733-16.927,37.733-37.733c0-13.213-6.832-24.854-17.143-31.596c15.192-8.695,32.774-13.67,51.497-13.67  C221.612,243.733,268.267,290.388,268.267,347.733z"/><path d="M204.104,366.447c21.076,0,38.224-17.147,38.224-38.224S225.181,290,204.104,290s-38.223,17.147-38.223,38.224  S183.028,366.447,204.104,366.447z M204.104,310c10.049,0,18.224,8.175,18.224,18.224s-8.175,18.224-18.224,18.224  c-10.048,0-18.223-8.175-18.223-18.224S194.057,310,204.104,310z"/><path d="M204.109,391.53c-2.64,0-5.22,1.069-7.08,2.93c-1.859,1.859-2.92,4.439-2.92,7.07c0,2.63,1.061,5.21,2.92,7.069  c1.87,1.87,4.45,2.931,7.08,2.931c2.62,0,5.2-1.061,7.061-2.931c1.87-1.859,2.93-4.439,2.93-7.069c0-2.631-1.07-5.211-2.93-7.07  C209.31,392.599,206.74,391.53,204.109,391.53z"/><path d="M115.09,357.069c-2.64,0-5.21,1.07-7.08,2.931c-1.86,1.859-2.93,4.439-2.93,7.069c0,2.631,1.069,5.211,2.93,7.07  c1.87,1.87,4.44,2.93,7.08,2.93c2.63,0,5.2-1.06,7.06-2.93c1.87-1.859,2.94-4.43,2.94-7.07c0-2.63-1.07-5.21-2.94-7.069  C120.29,358.14,117.72,357.069,115.09,357.069z"/><path d="M318.888,287.03c1.953,1.952,4.512,2.929,7.071,2.929s5.118-0.977,7.071-2.929l71-71c3.905-3.905,3.905-10.237,0-14.143  c-3.906-3.904-10.236-3.904-14.143,0l-71,71C314.982,276.793,314.982,283.125,318.888,287.03z"/><path d="M493.997,97.779l-64.359,64.358c-3.905,3.905-3.905,10.237,0,14.143c1.953,1.952,4.512,2.929,7.071,2.929  c2.559,0,5.118-0.977,7.071-2.929l64.359-64.358c3.905-3.905,3.905-10.237,0-14.143C504.234,93.876,497.904,93.875,493.997,97.779z"/></g><g transform="matrix(0.0390625 0 0 0.0390625 252.5 340)" id="L1_4"><circle cx="394" cy="117" r="98" fill="#ffd189"/><circle cx="154" cy="357" r="144" fill="#eceeff"/><g><path d="M154,213.992c-2.815,0-5.609,0.09-8.384,0.249v40.57c0,6.747,2.699,13.213,7.496,17.957   l13.271,13.126c4.728,4.677,11.11,7.3,17.761,7.3h22.43c4.645,0,9.064,2.008,12.119,5.509l32.648,37.409   c1.174,1.345,2.872,2.117,4.658,2.117h10.66c3.414,0,6.182,2.768,6.182,6.182v15.003c0,1.639,0.651,3.212,1.811,4.371   l19.998,19.998l0.864,0.939c1.626-8.663,2.487-17.595,2.487-26.73C298,278.463,233.529,213.992,154,213.992z" fill="#bded7e"/><path d="M10,357.992c0,24.688,6.217,47.922,17.164,68.229c3.54-2.317,6.015-3.966,6.015-3.966l16.369-28.669   c2.38-4.168,6.812-6.741,11.612-6.741h20.51c3.546,0,6.947-1.409,9.455-3.916l20.504-20.504c2.91-2.91,4.545-6.857,4.545-10.972   v-18.724c0-8.57-6.947-15.516-15.517-15.516H69.733c-8.57,0-15.516-6.947-15.516-15.517v-47.519   C26.964,280.378,10,317.202,10,357.992z" fill="#bded7e"/><path d="M289.564,406.646l-1.439-1.275l-41.487,5.186l-13.019,37.538c-2.01,5.795-7.47,9.681-13.604,9.681   l0,0c-5.29,0-10.153-2.9-12.668-7.554l-11.716-21.683c-3.215-5.949-9.433-9.657-16.195-9.657l0,0   c-15.079,0-29.54,5.99-40.202,16.652l-6.675,6.675c-5.819,5.819-7.069,14.794-3.061,21.982l21.053,37.756l0.003,0.001   c1.146,0.027,2.294,0.044,3.447,0.044C216.452,501.992,269.611,462.232,289.564,406.646z" fill="#bded7e"/></g><circle cx="446" cy="366" r="56" fill="#9aa9ff"/><rect x="19px" y="40px" width="46px" height="46px" transform="matrix(-0.7071 0.7071 -0.7071 -0.7071 118.6178 78.84)" fill="#eceeff"/><path d="M154,203.992c-2.296,0-4.579,0.06-6.851,0.16c-0.501-0.077-1.01-0.13-1.533-0.13c-0.923,0-1.812,0.135-2.661,0.369  c-36.249,2.581-69.064,17.765-94.089,41.182c-1.135,0.721-2.117,1.659-2.88,2.764C17.618,276.286,0,315.118,0,357.992  c0,83.758,67.213,152.107,150.535,153.956c0.008,0,0.016,0.001,0.023,0.001c0.005,0,0.011-0.001,0.017-0.001  c1.139,0.025,2.28,0.043,3.425,0.043c84.916,0,154-69.084,154-154S238.916,203.992,154,203.992z M44.216,281.25v20.445  c0,14.07,11.446,25.517,25.517,25.517h30.925c3.041,0,5.516,2.475,5.516,5.517v18.724c0,1.474-0.574,2.86-1.615,3.901  l-20.503,20.503c-0.637,0.637-1.484,0.988-2.385,0.988H61.16c-8.368,0-16.145,4.514-20.297,11.783l-11.128,19.49  C23.463,392.625,20,375.706,20,357.992C20,329.468,28.965,303.002,44.216,281.25z M40.464,429.082  c0.523-0.559,1.003-1.174,1.399-1.869l16.368-28.667c0.599-1.049,1.722-1.701,2.929-1.701h20.51c6.242,0,12.111-2.431,16.526-6.845  l20.505-20.505c4.818-4.82,7.472-11.227,7.472-18.042v-18.724c0-14.07-11.446-25.517-25.516-25.517H69.732  c-3.042,0-5.517-2.475-5.517-5.517v-43.089c19.48-17.616,44.146-29.592,71.4-33.348v29.552c0,9.354,3.814,18.49,10.464,25.067  l13.271,13.126c6.644,6.571,15.449,10.19,24.793,10.19h22.431c1.758,0,3.429,0.759,4.584,2.083l32.647,37.409  c3.074,3.522,7.519,5.542,12.193,5.542h6.841v11.185c0,4.324,1.685,8.389,4.74,11.442l17.05,17.05  c-0.625,2.73-1.339,5.426-2.128,8.09l-37.104,4.638c-3.778,0.472-6.96,3.049-8.208,6.646l-13.019,37.538  c-0.613,1.769-2.283,2.958-4.155,2.958c-1.618,0-3.102-0.884-3.87-2.308l-11.717-21.683c-4.967-9.193-14.544-14.903-24.993-14.903  c-17.858,0-34.646,6.954-47.273,19.582l-6.675,6.675c-8.936,8.936-10.879,22.886-4.725,33.923l11.828,21.213  C93.823,484.022,60.573,461.083,40.464,429.082z M156.431,491.961l-18.2-32.64c-1.822-3.267-1.247-7.396,1.398-10.041l6.675-6.675  c8.849-8.85,20.615-13.723,33.131-13.723c3.093,0,5.928,1.69,7.397,4.411l11.717,21.683c4.267,7.895,12.491,12.8,21.466,12.8  c10.385,0,19.648-6.592,23.052-16.404l10.98-31.663l20.143-2.518C252.632,460.784,208.05,491.037,156.431,491.961z M287.901,362.892  l-5.061-5.061V344.41c0-8.922-7.259-16.182-16.182-16.182h-8.924l-31.507-36.101c-4.954-5.678-12.117-8.934-19.653-8.934h-22.431  c-4.043,0-7.854-1.566-10.729-4.41l-13.271-13.126c-2.878-2.846-4.528-6.8-4.528-10.847v-30.798  C228.761,224.883,288,284.645,288,357.992C288,359.633,287.96,361.265,287.901,362.892z"/><path d="M446,300.65c-36.393,0-66,29.607-66,66s29.607,66,66,66s66-29.607,66-66S482.393,300.65,446,300.65z M446,412.65  c-25.364,0-46-20.636-46-46s20.636-46,46-46s46,20.636,46,46S471.364,412.65,446,412.65z"/><path d="M360.992,220.55c10.557,3.441,21.817,5.309,33.508,5.309c59.751,0,108.361-48.611,108.361-108.361  c0-11.69-1.868-22.951-5.31-33.508c1.269-2.466,2.489-4.919,3.606-7.339c13.914-30.147,14.361-53.966,1.258-67.069  c-6.391-6.39-18.834-12.907-41.85-7.653c-8.743,1.996-18.368,5.534-28.607,10.518c-1.19,0.58-2.209,1.368-3.045,2.295  c-10.817-3.632-22.389-5.604-34.414-5.604c-59.751,0-108.361,48.611-108.361,108.361c0,38.748,20.448,72.805,51.115,91.964  c-17.904,6.922-31.062,7.274-36.527,1.81c-3.59-3.59-3.956-9.944-3.63-14.642c0.381-5.51-3.775-10.286-9.285-10.667  c-5.504-0.373-10.285,3.775-10.667,9.285c-1.11,16.021,4.521,25.247,9.439,30.167c6.346,6.345,15.202,9.513,26.075,9.513  c11.579,0,25.446-3.594,40.994-10.771C356.074,223.039,358.526,221.818,360.992,220.55z M482.861,117.498  c0,48.723-39.639,88.361-88.361,88.361c-2.78,0-5.528-0.135-8.243-0.388c17.561-11.872,35.474-26.758,52.466-43.75  s31.878-34.905,43.75-52.466C482.726,111.97,482.861,114.718,482.861,117.498z M465.018,21.427  c11.005-2.513,19.264-1.696,23.256,2.297c5.602,5.602,4.811,19.213-1.848,36.466c-8.758-13.998-20.62-25.86-34.618-34.618  C456.476,23.764,460.899,22.367,465.018,21.427z M306.139,117.498c0-48.723,39.639-88.361,88.361-88.361  c36.299,0,67.552,22.004,81.131,53.373c-12.078,21.177-29.78,43.8-51.05,65.07c-23.208,23.208-45.628,40.035-64.994,51.084  C328.179,185.1,306.139,153.827,306.139,117.498z"/><path d="M35.91,104.044c1.876,1.875,4.419,2.929,7.071,2.929s5.195-1.054,7.071-2.929l32.98-32.981  c3.905-3.905,3.905-10.237,0-14.142L50.053,23.94c-1.876-1.875-4.419-2.929-7.071-2.929s-5.195,1.054-7.071,2.929L2.929,56.921  C1.054,58.796,0,61.34,0,63.992c0,2.652,1.054,5.196,2.929,7.071L35.91,104.044z M42.981,45.153L61.82,63.992L42.981,82.831  L24.143,63.992L42.981,45.153z"/><path d="M390.183,471.992H380.5v-10c0-5.523-4.478-10-10-10s-10,4.477-10,10v10h-9.683c-5.522,0-10,4.477-10,10s4.478,10,10,10  h9.683v10c0,5.523,4.478,10,10,10s10-4.477,10-10v-10h9.683c5.522,0,10-4.477,10-10S395.705,471.992,390.183,471.992z"/><path d="M165.616,107.498c-16.542,0-30,13.458-30,30s13.458,30,30,30s30-13.458,30-30S182.158,107.498,165.616,107.498z   M165.616,147.498c-5.514,0-10-4.486-10-10s4.486-10,10-10s10,4.486,10,10S171.13,147.498,165.616,147.498z"/><path d="M468,247.102c-1.87,1.86-2.931,4.44-2.931,7.08c0,2.63,1.061,5.21,2.931,7.07c1.859,1.86,4.439,2.93,7.069,2.93  c2.631,0,5.21-1.07,7.07-2.93s2.93-4.44,2.93-7.07c0-2.64-1.069-5.22-2.93-7.08s-4.439-2.92-7.07-2.92  C472.439,244.182,469.859,245.242,468,247.102z"/><path d="M350.33,320.652c2.64,0,5.21-1.07,7.069-2.93c1.87-1.86,2.931-4.44,2.931-7.07s-1.061-5.21-2.931-7.07  c-1.859-1.86-4.43-2.93-7.069-2.93c-2.63,0-5.21,1.07-7.07,2.93s-2.93,4.44-2.93,7.07s1.069,5.21,2.93,7.07  C345.12,319.582,347.7,320.652,350.33,320.652z"/><path d="M222.81,59.992c2.63,0,5.21-1.07,7.07-2.93s2.93-4.44,2.93-7.07s-1.069-5.21-2.93-7.07c-1.86-1.86-4.44-2.93-7.07-2.93  c-2.64,0-5.21,1.07-7.069,2.93c-1.86,1.86-2.931,4.44-2.931,7.07s1.07,5.21,2.931,7.07C217.6,58.922,220.18,59.992,222.81,59.992z"/><path d="M137.003,59.992H185c5.522,0,10-4.477,10-10s-4.478-10-10-10h-47.997c-5.522,0-10,4.477-10,10S131.48,59.992,137.003,59.992  z"/><path d="M394.5,53.998l-0.36,0.001c-5.522,0.026-9.979,4.524-9.953,10.047c0.025,5.507,4.498,9.953,9.999,9.953  c0.016,0,0.032,0,0.048,0l0.267-0.001c5.522,0,10-4.477,10-10S400.022,53.998,394.5,53.998z"/><path d="M356.554,66.579C340.553,78.52,331,97.554,331,117.498c0,16.961,6.605,32.908,18.599,44.901  c1.953,1.953,4.512,2.929,7.071,2.929s5.118-0.976,7.071-2.929c3.905-3.905,3.905-10.237,0-14.143  C355.524,140.04,351,129.116,351,117.497c0-13.867,6.384-26.583,17.515-34.89c4.427-3.303,5.337-9.569,2.034-13.995  C367.245,64.186,360.979,63.276,356.554,66.579z"/></g><g transform="matrix(0.07812469452619553 0 0 0.07812469452619553 242.5 67.5)" id="L1_5"><circle cx="210" cy="301" r="200" fill="#c6ecf6"/><g><path d="M210.017,101.971c-3.91,0-7.791,0.125-11.646,0.346v56.351c0,9.371,3.749,18.352,10.412,24.943   l18.433,18.232c6.567,6.495,15.432,10.139,24.67,10.139h31.155c6.452,0,12.59,2.79,16.832,7.652l45.348,51.961   c1.63,1.868,3.989,2.94,6.469,2.94h14.806c4.742,0,8.587,3.844,8.587,8.587v20.84c0,2.277,0.905,4.461,2.515,6.071l27.777,27.777   l1.201,1.304c2.259-12.032,3.454-24.44,3.454-37.128C410.031,191.52,320.482,101.971,210.017,101.971z" fill="#bded7e"/><path d="M10.002,301.985c0,34.291,8.635,66.563,23.841,94.77c4.917-3.218,8.355-5.509,8.355-5.509   l22.737-39.821c3.306-5.789,9.462-9.364,16.128-9.364h28.489c4.925,0,9.65-1.957,13.133-5.439l28.479-28.479   c4.042-4.042,6.312-9.524,6.312-15.24v-26.008c0-11.903-9.65-21.553-21.553-21.553H92.97c-11.903,0-21.553-9.65-21.553-21.553   v-66.003C33.564,194.179,10.002,245.328,10.002,301.985z" fill="#bded7e"/><path d="M398.315,369.565l-1.999-1.771l-57.624,7.204l-18.083,52.14   c-2.792,8.05-10.376,13.447-18.896,13.447l0,0c-7.348,0-14.103-4.028-17.595-10.493l-16.274-30.117   c-4.465-8.264-13.102-13.414-22.495-13.414l0,0c-20.945,0-41.031,8.32-55.84,23.13l-9.272,9.272   c-8.083,8.083-9.819,20.549-4.251,30.532l29.242,52.443l0.004,0.001c1.592,0.037,3.187,0.061,4.787,0.061   C296.763,502,370.6,446.773,398.315,369.565z" fill="#bded7e"/></g><circle cx="430" cy="81" r="72" fill="#ffe5bb"/><g><circle cx="461" cy="113" r="28" fill="#ffd189"/><path d="M362.15,57.923c0.624,0.773,1.293,1.522,2.012,2.241c10.973,10.973,28.764,10.973,39.737,0   s10.973-28.764,0-39.737c-1.392-1.392-2.895-2.606-4.479-3.645c-7.346,3.449-14.232,8.202-20.301,14.271   C371.27,38.902,365.617,48.113,362.15,57.923z" fill="#ffd189"/></g><path d="M384.079,184.437c-3.094-4.575-9.312-5.774-13.887-2.679c-4.574,3.095-5.774,9.313-2.679,13.887  c21.274,31.443,32.518,68.215,32.518,106.341c0,5.28-0.227,10.509-0.652,15.682l-14.293-14.293v-20.254  c0-10.25-8.338-18.587-18.587-18.587h-14.164l-44.925-51.477c-6.143-7.04-15.024-11.076-24.368-11.076h-31.155  c-6.648,0-12.911-2.574-17.637-7.25L215.814,176.5c-4.73-4.678-7.444-11.178-7.444-17.832v-46.675  c0.549-0.005,1.095-0.021,1.645-0.021c36.228,0,71.45,10.229,101.862,29.58c4.66,2.963,10.841,1.591,13.807-3.068  c2.965-4.66,1.591-10.841-3.068-13.807C288.99,103.279,250.054,91.97,210.017,91.97c-3.256,0-6.493,0.085-9.715,0.233  c-0.625-0.122-5.041,0.273-4.988,0.29C86.345,100.065,0.001,191.125,0.001,301.985c0,115.803,94.213,210.016,210.016,210.016  s210.016-94.213,210.016-210.016C420.032,259.849,407.6,219.201,384.079,184.437z M61.417,183.708v40.083  c0,17.398,14.155,31.552,31.553,31.552h42.953c6.369,0,11.552,5.182,11.552,11.552v26.008c0,3.085-1.202,5.986-3.383,8.169  l-28.479,28.479c-1.619,1.619-3.771,2.511-6.061,2.511H81.062c-10.232,0-19.739,5.52-24.813,14.405l-19.334,33.862  c-10.859-23.9-16.912-50.428-16.912-78.343C20.002,257.306,35.512,216.187,61.417,183.708z M47.223,399.887  c1.474-0.856,2.752-2.095,3.658-3.682l22.737-39.821c1.522-2.666,4.374-4.321,7.444-4.321h28.489c7.633,0,14.808-2.972,20.204-8.369  l28.479-28.479c5.959-5.959,9.242-13.883,9.242-22.312v-26.008c0-17.398-14.155-31.553-31.553-31.553H92.97  c-6.369,0-11.552-5.182-11.552-11.551v-61.558c28.862-26.579,65.945-44.35,106.952-49.022v45.455c0,11.96,4.876,23.644,13.38,32.053  l18.433,18.231c8.495,8.403,19.753,13.03,31.702,13.03h31.155c3.565,0,6.955,1.54,9.298,4.226l45.348,51.962  c3.53,4.045,8.635,6.365,14.004,6.365h13.393v19.425c0,4.965,1.933,9.633,5.443,13.144l25.186,25.186  c-1.177,5.43-2.575,10.78-4.208,16.028l-54.056,6.757c-3.778,0.472-6.96,3.049-8.209,6.646l-18.083,52.14  c-1.395,4.021-5.191,6.724-9.448,6.724c-3.678,0-7.049-2.01-8.798-5.246l-16.273-30.117c-6.219-11.51-18.21-18.66-31.293-18.66  c-23.765,0-46.107,9.255-62.913,26.059l-9.272,9.272c-11.189,11.189-13.621,28.654-5.915,42.474l20.236,36.292  C127.989,483.596,76.838,448.945,47.223,399.887z M211.126,491.986l-26.408-47.361c-3.372-6.048-2.308-13.693,2.589-18.59  l9.272-9.272c13.026-13.027,30.346-20.202,48.769-20.202c5.726,0,10.975,3.129,13.696,8.168l16.273,30.117  c5.246,9.709,15.36,15.739,26.395,15.739c12.77,0,24.161-8.106,28.344-20.171l16.045-46.264l37.397-4.674  C353.929,445.413,287.842,491.544,211.126,491.986z"/><path d="M344.377,167.625c0.036,0.035,0.071,0.07,0.107,0.105l0.203,0.204c1.955,1.968,4.524,2.953,7.096,2.953  c2.548,0,5.096-0.968,7.048-2.905c3.918-3.892,3.94-10.225,0.048-14.143c-0.08-0.081-0.16-0.16-0.241-0.237  c-0.063-0.067-0.127-0.133-0.192-0.199l-0.001,0.001c-0.017-0.016-0.036-0.029-0.052-0.045c0.017,0.016,0.035,0.029,0.052,0.045  l-0.007,0.007c-0.507-0.47-1.019-0.87-1.533-1.218c-0.204-0.134-0.403-0.279-0.615-0.396c-4.759-2.803-9.592-0.864-12.003,1.527  c-3.909,3.875-3.908,10.219-0.059,14.145C344.276,167.522,344.326,167.573,344.377,167.625z"/><path d="M219.654,20.125c3.2,0.107,6.444,0.271,9.644,0.487c0.229,0.015,0.457,0.023,0.684,0.023c5.215,0,9.611-4.046,9.968-9.328  c0.372-5.51-3.793-10.28-9.305-10.651c-3.424-0.231-6.896-0.407-10.322-0.521c-5.532-0.159-10.145,4.141-10.33,9.661  C209.81,15.316,214.135,19.94,219.654,20.125z"/><path d="M313.733,39.644c2.976,1.178,5.975,2.425,8.915,3.706c1.301,0.567,2.657,0.836,3.992,0.836c3.856,0,7.532-2.245,9.172-6.005  c2.208-5.063-0.107-10.957-5.169-13.165c-3.148-1.373-6.361-2.708-9.55-3.97c-5.136-2.034-10.947,0.483-12.979,5.619  C306.081,31.801,308.597,37.613,313.733,39.644z"/><path d="M170.084,22.672c0.451,0,0.908-0.03,1.368-0.093c3.171-0.434,6.401-0.819,9.602-1.146c5.494-0.561,9.495-5.469,8.934-10.964  c-0.561-5.494-5.47-9.493-10.964-8.934c-3.425,0.35-6.885,0.762-10.281,1.227c-5.472,0.748-9.302,5.791-8.554,11.264  C160.874,19.037,165.162,22.672,170.084,22.672z"/><path d="M267.542,25.834c3.138,0.65,6.306,1.364,9.417,2.121c0.794,0.193,1.59,0.286,2.373,0.286c4.505,0,8.597-3.066,9.709-7.639  c1.306-5.366-1.985-10.776-7.353-12.082c-3.332-0.811-6.727-1.575-10.088-2.272c-5.408-1.117-10.701,2.355-11.822,7.764  C258.658,19.42,262.134,24.713,267.542,25.834z"/><path d="M33.112,79.634c2.114,0,4.246-0.668,6.057-2.049c2.548-1.943,5.165-3.869,7.78-5.725c4.503-3.197,5.563-9.44,2.366-13.944  c-3.197-4.504-9.441-5.563-13.944-2.366c-2.799,1.987-5.602,4.049-8.332,6.131c-4.391,3.349-5.236,9.625-1.887,14.017  C27.121,78.279,30.099,79.634,33.112,79.634z"/><path d="M121.367,33.665c1.005,0,2.027-0.152,3.036-0.474c3.05-0.971,6.164-1.902,9.255-2.77c5.317-1.492,8.42-7.013,6.928-12.331  c-1.493-5.318-7.015-8.422-12.331-6.928c-3.313,0.929-6.649,1.928-9.919,2.969c-5.263,1.675-8.172,7.3-6.496,12.563  C113.194,30.949,117.129,33.665,121.367,33.665z"/><path d="M75.267,52.851c1.557,0,3.137-0.365,4.613-1.134c2.843-1.482,5.75-2.934,8.642-4.316c4.982-2.382,7.092-8.354,4.708-13.336  c-2.382-4.983-8.355-7.091-13.336-4.708c-3.097,1.481-6.212,3.037-9.258,4.624c-4.897,2.553-6.8,8.593-4.247,13.491  C68.172,50.892,71.657,52.851,75.267,52.851z"/><path d="M490.61,273.428c0.518,5.155,4.865,9.002,9.939,9.002c0.334,0,0.672-0.017,1.012-0.051  c5.495-0.552,9.503-5.455,8.951-10.951c-0.342-3.406-0.749-6.862-1.209-10.273c-0.739-5.474-5.78-9.31-11.249-8.573  c-5.473,0.739-9.312,5.775-8.573,11.249C489.91,267.018,490.291,270.247,490.61,273.428z"/><path d="M502.204,302.384c-5.525-0.173-10.15,4.127-10.343,9.647c-0.111,3.196-0.279,6.441-0.5,9.646  c-0.38,5.51,3.778,10.285,9.289,10.665c0.234,0.017,0.467,0.024,0.698,0.024c5.209,0,9.603-4.037,9.967-9.314  c0.236-3.43,0.417-6.904,0.536-10.326C512.043,307.207,507.724,302.575,502.204,302.384z"/><path d="M485.199,400.467c-5.132-2.04-10.947,0.469-12.987,5.601c-1.18,2.97-2.43,5.965-3.717,8.905  c-2.215,5.06,0.091,10.957,5.15,13.172c1.306,0.571,2.666,0.842,4.005,0.842c3.852,0,7.524-2.238,9.167-5.992  c1.378-3.148,2.718-6.358,3.982-9.541C492.84,408.32,490.332,402.506,485.199,400.467z"/><path d="M497.92,352.159c-5.411-1.13-10.705,2.339-11.834,7.747c-0.653,3.129-1.371,6.294-2.133,9.408  c-1.313,5.365,1.97,10.779,7.335,12.092c0.799,0.196,1.599,0.29,2.386,0.29c4.5,0,8.588-3.059,9.706-7.625  c0.816-3.334,1.585-6.724,2.285-10.078C506.795,358.586,503.326,353.287,497.92,352.159z"/><path d="M500.959,220.654c-0.922-3.304-1.915-6.642-2.952-9.917c-1.666-5.265-7.285-8.184-12.552-6.516  c-5.265,1.667-8.184,7.287-6.516,12.552c0.967,3.058,1.895,6.171,2.755,9.257c1.234,4.421,5.251,7.316,9.628,7.316  c0.889,0,1.794-0.12,2.693-0.371C499.335,231.49,502.444,225.975,500.959,220.654z"/><path d="M436.111,487.086c-4.149-3.644-10.468-3.235-14.114,0.916c-2.112,2.405-4.297,4.81-6.496,7.148  c-3.784,4.023-3.589,10.353,0.434,14.137c1.931,1.816,4.393,2.715,6.85,2.715c2.662,0,5.319-1.057,7.288-3.149  c2.353-2.502,4.693-5.077,6.956-7.653C440.671,497.049,440.262,490.73,436.111,487.086z"/><path d="M464.379,445.883c-4.709-2.887-10.867-1.412-13.753,3.297c-1.674,2.73-3.419,5.47-5.187,8.146  c-3.046,4.607-1.78,10.812,2.827,13.857c1.698,1.123,3.612,1.659,5.505,1.659c3.245,0,6.428-1.577,8.352-4.486  c1.893-2.863,3.761-5.796,5.553-8.72C470.564,454.928,469.088,448.771,464.379,445.883z"/><path d="M430.033,163.936c21.001,0,42-7.994,57.987-23.981c31.974-31.974,31.974-84,0-115.975  c-31.975-31.974-83.999-31.974-115.975,0c-31.974,31.974-31.974,84,0,115.975C388.034,155.943,409.033,163.936,430.033,163.936z   M448.283,125.812c-7.057-7.057-7.057-18.537,0-25.593c3.528-3.528,8.163-5.292,12.797-5.292c4.634,0,9.269,1.764,12.796,5.292  c7.057,7.057,7.057,18.537,0,25.593C466.821,132.869,455.34,132.868,448.283,125.812z M386.19,38.125  c3.642-3.642,7.635-6.726,11.862-9.271c5.803,7.102,5.396,17.617-1.223,24.238c-0.932,0.931-1.958,1.759-3.053,2.46  c-4.649,2.981-6,9.168-3.02,13.817c1.91,2.978,5.134,4.603,8.428,4.603c1.848,0,3.718-0.512,5.389-1.583  c2.299-1.475,4.451-3.208,6.397-5.153c12.41-12.411,14.443-31.319,6.117-45.87c4.264-0.904,8.604-1.372,12.945-1.372  c15.878,0,31.755,6.043,43.843,18.131c14.143,14.143,19.999,33.473,17.593,51.924c-1.046-1.382-2.19-2.713-3.449-3.973  c-14.855-14.854-39.024-14.855-53.88,0c-14.855,14.855-14.855,39.025,0,53.88c1.26,1.26,2.591,2.403,3.973,3.449  c-18.449,2.405-37.78-3.45-51.924-17.593C362.014,101.638,362.014,62.301,386.19,38.125z"/><path d="M145.26,195.478h-34.336c-5.523,0-10.001,4.477-10.001,10.001s4.477,10.001,10.001,10.001h34.336  c5.523,0,10.001-4.477,10.001-10.001S150.783,195.478,145.26,195.478z"/><path d="M178.014,215.479c2.63,0,5.21-1.07,7.071-2.93s2.93-4.44,2.93-7.071s-1.07-5.21-2.93-7.071c-1.86-1.86-4.44-2.93-7.071-2.93  s-5.21,1.07-7.071,2.93c-1.86,1.86-2.93,4.44-2.93,7.071s1.07,5.21,2.93,7.071C172.804,214.408,175.384,215.479,178.014,215.479z"/></g><g transform="matrix(0.13671875 0 0 0.13671875 315 140)" id="L1_6"><path d="M236,256V30c0-11.046,8.954-20,20-20l0,0c11.046,0,20,8.954,20,20v226H236z" fill="#ffe5bb"/><path d="M429.541,126 276,126 276,30 429.541,30 381.273,78z" fill="#fe7a77"/><path d="M502,502c0-135.862-110.138-246-246-246S10,366.138,10,502H502z" fill="#c6ecf6"/><g><circle cx="221" cy="359" r="31" fill="#70cee8"/><circle cx="392" cy="365" r="53" fill="#70cee8"/><path d="M54.794,502c36.63,0,66.324-29.694,66.324-66.323c0-36.63-29.694-66.324-66.324-66.324   c-2.09,0-4.153,0.112-6.193,0.302c-21.587,33.758-35.143,73.139-38.013,115.453C22.32,495.61,37.809,502,54.794,502z" fill="#70cee8"/><circle cx="291" cy="466" r="35" fill="#70cee8"/></g><path d="M54.958,492h-0.164c-5.523,0-10,4.477-10,10s4.477,10,10,10h0.164c5.523,0,10-4.477,10-10S60.481,492,54.958,492z"/><path d="M437.019,320.98c-41.208-41.208-93.993-66.622-151.019-73.237V136h143.541c4.05,0,7.7-2.442,9.244-6.186  s0.679-8.049-2.193-10.905L395.455,78l41.138-40.909c2.872-2.855,3.737-7.161,2.193-10.905S433.591,20,429.541,20H284.28  C280.152,8.361,269.036,0,256,0c-16.542,0-30,13.458-30,30v70.5c0,5.523,4.477,10,10,10s10-4.477,10-10V30c0-5.514,4.486-10,10-10  s10,4.486,10,10v96v120.21c-3.324-0.127-6.655-0.21-10-0.21s-6.676,0.083-10,0.21V184.5c0-5.523-4.477-10-10-10s-10,4.477-10,10  v63.243c-57.026,6.615-109.811,32.029-151.019,73.237C26.628,369.333,0,433.62,0,502c0,5.523,4.477,10,10,10s10-4.477,10-10  c0-44.893,12.604-86.897,34.454-122.664c0.114,0.004,0.226,0.017,0.341,0.017c31.057,0,56.323,25.267,56.323,56.323  c0,16.622-7.291,32.313-20.004,43.051c-4.219,3.564-4.75,9.874-1.187,14.092c1.979,2.342,4.802,3.547,7.645,3.547  c2.279,0,4.571-0.775,6.448-2.36c17.222-14.547,27.099-35.807,27.099-58.331c0-37.818-27.653-69.282-63.797-75.278  C110.42,303.114,178.955,266,256,266c46.946,0,90.732,13.783,127.531,37.509c-30.479,4.419-53.972,30.71-53.972,62.395  c0,34.771,28.288,63.059,63.059,63.059c31.602,0,57.842-23.368,62.365-53.731C478.407,411.873,492,455.378,492,502  c0,5.523,4.477,10,10,10s10-4.477,10-10C512,433.62,485.372,369.333,437.019,320.98z M374.222,70.909  c-1.888,1.877-2.949,4.429-2.949,7.091s1.061,5.214,2.949,7.091L405.304,116H286V40h119.304L374.222,70.909z M392.618,408.963  c-23.743,0-43.059-19.316-43.059-43.059s19.316-43.059,43.059-43.059s43.059,19.316,43.059,43.059S416.36,408.963,392.618,408.963z"/><path d="M263.093,359.188c0-23.088-18.783-41.871-41.871-41.871s-41.871,18.783-41.871,41.871s18.783,41.871,41.871,41.871  S263.093,382.275,263.093,359.188z M221.222,381.059c-12.06,0-21.871-9.812-21.871-21.871s9.812-21.871,21.871-21.871  s21.871,9.812,21.871,21.871S233.281,381.059,221.222,381.059z"/><path d="M291.099,421.802c-24.868,0-45.099,20.231-45.099,45.099S266.231,512,291.099,512s45.099-20.231,45.099-45.099  S315.967,421.802,291.099,421.802z M291.099,492C277.259,492,266,480.741,266,466.901s11.259-25.099,25.099-25.099  s25.099,11.259,25.099,25.099S304.939,492,291.099,492z"/><path d="M236,155c2.63,0,5.21-1.07,7.07-2.93S246,147.63,246,145s-1.07-5.21-2.93-7.07c-1.86-1.86-4.44-2.93-7.07-2.93  s-5.21,1.07-7.07,2.93c-1.86,1.86-2.93,4.44-2.93,7.07s1.07,5.21,2.93,7.07C230.79,153.93,233.37,155,236,155z"/></g><g transform="matrix(0.13206017156295854 -0.03538541632261026 0.03538541632261026 0.13206017156295854 132.1339295012944 150.25126265847084)" id="L1_7"><path d="M502,502v-18.076C502,433.708,461.292,393,411.076,393h-60.085  c-21.544,0-39.009-17.465-39.009-39.009v-17.738H200.018v17.738c0,21.544-17.465,39.009-39.009,39.009h-60.085  C50.708,393,10,433.708,10,483.924V502H502z" fill="#bded7e"/><g><path d="M98,502v-16.063c0-13.255-10.745-24-24-24l0,0c-13.255,0-24,10.745-24,24V502H98z" fill="#ffffff"/><path d="M454.991,502v-16.063c0-13.255-10.745-24-24-24l0,0c-13.255,0-24,10.745-24,24V502H454.991z" fill="#ffffff"/></g><path d="M402.956,143.444C402.956,48.154,337.162,10,256,10S109.044,48.154,109.044,143.444  S174.838,355.073,256,355.073S402.956,238.733,402.956,143.444z" fill="#bded7e"/><g><path d="M223.783,159.292c-6.811-24.463-27.905-40.311-47.115-35.398s-29.262,28.727-22.45,53.19   s27.905,40.311,47.115,35.398C220.543,207.568,230.594,183.755,223.783,159.292z" fill="#8396ff"/><path d="M288.217,159.292c6.811-24.463,27.905-40.311,47.115-35.398s29.262,28.727,22.45,53.19   s-27.905,40.311-47.115,35.398C291.457,207.568,281.406,183.755,288.217,159.292z" fill="#8396ff"/></g><path d="M233.417,156.609L233.417,156.609c-8.248-29.624-34.813-48.652-59.227-42.404c-10.349,2.646-19.213,9.576-24.961,19.513  c-7.494,12.954-9.188,29.737-4.646,46.047c7.19,25.824,28.301,43.591,49.768,43.591c3.159,0,6.327-0.385,9.459-1.186  c10.349-2.646,19.213-9.576,24.961-19.513C236.265,189.703,237.958,172.919,233.417,156.609z M211.459,192.642  c-2.146,3.709-6.074,8.481-12.604,10.151c-13.715,3.504-29.742-9.497-35.004-28.393c-3.062-10.998-2.057-22.462,2.69-30.668  c2.146-3.709,6.074-8.481,12.604-10.151c1.51-0.386,3.048-0.572,4.597-0.572c12.515,0,25.725,12.148,30.407,28.964  C217.212,172.972,216.205,184.437,211.459,192.642z"/><path d="M367.417,179.765c4.541-16.31,2.848-33.093-4.646-46.047c-5.748-9.937-14.612-16.866-24.961-19.513  c-24.413-6.244-50.978,12.781-59.227,42.404l0,0c-4.541,16.31-2.848,33.094,4.646,46.047c5.748,9.937,14.612,16.866,24.961,19.513  c3.133,0.801,6.299,1.186,9.459,1.186C339.115,223.355,360.227,205.586,367.417,179.765z M348.149,174.4  c-4.683,16.817-17.892,28.966-30.408,28.965c-1.547,0-3.087-0.186-4.596-0.572c-6.53-1.67-10.459-6.442-12.604-10.151  c-4.746-8.206-5.753-19.67-2.69-30.668l0,0c5.262-18.897,21.296-31.894,35.004-28.393c6.53,1.67,10.459,6.442,12.604,10.151  C350.206,151.938,351.211,163.403,348.149,174.4z"/><path d="M186.461,72.361c1.156,0,2.333-0.202,3.48-0.628c25.158-9.343,63.391-12.538,97.397-8.135  c5.478,0.709,10.491-3.157,11.2-8.634s-3.156-10.492-8.634-11.201c-37.551-4.859-78.524-1.326-106.927,9.221  c-5.177,1.923-7.815,7.678-5.893,12.856C178.582,69.87,182.4,72.361,186.461,72.361z"/><path d="M322.264,71.714c1.162,0.439,2.355,0.647,3.528,0.647c4.041,0,7.847-2.468,9.358-6.472  c1.949-5.167-0.658-10.937-5.826-12.887l-0.232-0.086c-5.177-1.906-10.893,0.763-12.799,5.946  C314.386,64.045,317.08,69.808,322.264,71.714z"/><path d="M289.566,85.456c-18.752-6.964-48.127-6.964-66.879,0c-5.178,1.923-7.815,7.679-5.893,12.856s7.679,7.813,12.855,5.893  c14.352-5.33,38.602-5.33,52.953,0c1.147,0.426,2.323,0.628,3.48,0.628c4.061,0,7.879-2.492,9.375-6.521  C297.382,93.134,294.744,87.378,289.566,85.456z"/><path d="M20.771,439.811c-5.104-2.122-10.953,0.295-13.073,5.394C2.59,457.488,0,470.515,0,483.924V502c0,5.522,4.478,10,10,10  s10-4.478,10-10v-18.076c0-10.76,2.074-21.203,6.164-31.041C28.285,447.784,25.869,441.931,20.771,439.811z"/><path d="M43.24,427.168c3.851-3.96,3.763-10.291-0.196-14.142c-3.961-3.849-10.29-3.761-14.142,0.196l-0.208,0.213  c-3.851,3.96-3.763,10.291,0.196,14.142c1.944,1.89,4.459,2.831,6.972,2.831c2.605,0,5.209-1.013,7.17-3.027L43.24,427.168z"/><path d="M411.076,383h-60.085c-15.996,0-29.01-13.014-29.01-29.009v-12.489c16.729-12.432,32.39-29.591,46.322-51.069  c27.96-43.102,44.652-98.052,44.652-146.99c0-48.121-15.733-85.21-46.765-110.239C339.26,11.482,301.156,0,256,0  s-83.26,11.482-110.191,33.205c-31.031,25.028-46.765,62.118-46.765,110.239c0,48.938,16.692,103.888,44.652,146.99  c13.933,21.478,29.593,38.636,46.322,51.069v12.489c0,15.995-13.014,29.009-29.01,29.009h-60.085  c-14.342,0-28.202,2.949-41.195,8.766c-5.041,2.256-7.298,8.172-5.041,13.213c1.662,3.714,5.311,5.917,9.133,5.917  c1.365,0,2.753-0.281,4.08-0.876c10.405-4.658,21.517-7.02,33.023-7.02h60.085c27.024,0,49.01-21.985,49.01-49.009v-0.138  c14.87,7.384,30.33,11.22,45.981,11.22s31.112-3.836,45.981-11.22v0.138c0,27.023,21.985,49.009,49.01,49.009h60.085  C455.697,403,492,439.303,492,483.924V502c0,5.522,4.478,10,10,10s10-4.478,10-10v-18.076C512,428.274,466.726,383,411.076,383z   M160.476,279.55c-25.943-39.994-41.432-90.875-41.432-136.106C119.044,36.037,204.852,20,256,20s136.956,16.037,136.956,123.443  c0,45.232-15.488,96.113-41.432,136.106c-27.012,41.641-61.829,65.523-95.524,65.523S187.487,321.19,160.476,279.55z"/><path d="M74,451.938c-18.748,0-34,15.252-34,34V502c0,5.522,4.478,10,10,10s10-4.478,10-10v-16.063c0-7.72,6.28-14,14-14  s14,6.28,14,14V502c0,5.522,4.478,10,10,10s10-4.478,10-10v-16.063C108,467.189,92.748,451.938,74,451.938z"/><path d="M430.991,451.938c-18.748,0-34,15.252-34,34V502c0,5.522,4.478,10,10,10s10-4.478,10-10v-16.063c0-7.72,6.28-14,14-14  s14,6.28,14,14V502c0,5.522,4.478,10,10,10s10-4.478,10-10v-16.063C464.991,467.189,449.739,451.938,430.991,451.938z"/><path d="M315.547,417.738c-12.279,0-22.27,9.99-22.27,22.271c0,5.522,4.478,10,10,10s10-4.478,10-10c0-1.252,1.019-2.271,2.27-2.271  c5.522,0,10-4.478,10-10S321.069,417.738,315.547,417.738z"/><path d="M196.453,417.738c-5.522,0-10,4.478-10,10s4.478,10,10,10c1.251,0,2.27,1.019,2.27,2.271c0,5.522,4.478,10,10,10  s10-4.478,10-10C218.723,427.729,208.732,417.738,196.453,417.738z"/><path d="M271,269.795h-30c-5.522,0-10,4.478-10,10s4.478,10,10,10h30c5.522,0,10-4.478,10-10S276.522,269.795,271,269.795z"/></g><g transform="matrix(0.09765605628490448 0 0 0.09765605628490448 62.5 237.5)" id="L1_8"><path d="M415.921,241.931l3.983,19.406c15.144,73.779-7.794,150.231-61.05,203.487l0,0l-82.913-82.913  L130.138,236.109l-82.913-82.913l0,0c53.257-53.257,129.708-76.195,203.487-61.05l19.406,3.983L415.921,241.931z" fill="#dde2ff"/><path d="M202.992,308.962l72.949,72.949L413.503,244.35c61.604-61.604,93.619-146.8,87.831-233.729l0,0  l0.095,0.095l0,0C414.501,4.928,329.304,36.943,267.7,98.547L130.137,236.109l72.949,72.949L202.992,308.962z" fill="#fe7a77"/><rect x="103px" y="303px" width="170px" height="40px" transform="matrix(-0.7071 -0.7071 0.7071 -0.7071 93.1572 685.6749)" fill="#afbaff"/><circle cx="320" cy="190" r="58" fill="#ffffff"/><path d="M174.098,425.749c24.217-24.217,24.217-63.491,0-87.708c-24.217-24.217-63.491-24.217-87.708,0  c-0.426,0.426-0.843,0.858-1.254,1.294c-41.692,43.36-33.778,119.822-32.966,120.634c0.54,0.54,77.262,8.721,120.628-32.96  C173.236,426.596,173.67,426.177,174.098,425.749z" fill="#ffe4ba"/><path d="M174.098,381.896c12.109-12.109,12.109-31.746,0-43.855c-12.109-12.109-31.746-12.109-43.855,0  c-0.213,0.213-0.422,0.429-0.627,0.647c-20.846,21.68-16.889,59.911-16.483,60.318c0.27,0.27,38.632,4.36,60.315-16.48  C173.667,382.318,173.884,382.11,174.098,381.896z" fill="#ffd189"/><path d="M251.865,190.901c0,18.295,7.124,35.492,20.059,48.429c12.936,12.936,30.134,20.059,48.428,20.059  c18.294,0,35.492-7.124,48.428-20.059c12.936-12.936,20.059-30.134,20.059-48.429c0-18.294-7.124-35.491-20.059-48.428  c-12.936-12.936-30.134-20.059-48.428-20.059c-18.294,0-35.492,7.125-48.428,20.059  C258.989,155.409,251.865,172.607,251.865,190.901z M320.352,142.41c12.953,0,25.129,5.044,34.288,14.203  c9.159,9.158,14.203,21.336,14.203,34.287c0,12.953-5.044,25.13-14.203,34.289c-9.158,9.159-21.336,14.202-34.288,14.202  s-25.129-5.043-34.288-14.202c-9.159-9.158-14.203-21.336-14.203-34.289c0-12.952,5.044-25.129,14.203-34.288  C295.222,147.453,307.4,142.41,320.352,142.41z"/><path d="M426.766,245.038c59.251-62.722,89.98-147.288,84.638-233.627c0.196-2.823-0.812-5.663-2.886-7.748l-0.095-0.096  c-2.09-2.1-4.948-3.126-7.788-2.922c-86.34-5.35-170.902,25.386-233.624,84.638l-14.288-2.933  C175.42,66.481,95.956,90.325,40.155,146.125c-1.875,1.876-2.928,4.418-2.928,7.07s1.054,5.194,2.928,7.07l88.551,88.551  l-21.916,21.917c-3.904,3.904-3.904,10.235,0,14.14l25.046,25.046c-0.531-0.011-1.059-0.039-1.592-0.039  c-19.238,0-37.323,7.491-50.92,21.088c-0.492,0.491-0.973,0.99-1.396,1.438c-23.542,24.483-32.099,58.074-35.133,81.941  c-1.731,13.619-1.867,25.347-1.675,32.786c0.42,16.348,1.761,17.687,3.983,19.91c2.311,2.31,3.47,3.468,19.803,3.861  c1.508,0.036,3.189,0.06,5.025,0.06c7.264,0,16.933-0.364,27.739-1.722c23.936-3.005,57.604-11.521,81.996-34.967  c0.505-0.478,1.007-0.961,1.502-1.456c14.451-14.452,21.445-33.568,21.021-52.547l25.078,25.078c1.875,1.875,4.418,2.928,7.07,2.928  c2.652,0,5.195-1.054,7.07-2.928l21.916-21.916l88.462,88.461c1.875,1.875,4.417,2.928,7.07,2.928c2.652,0,5.195-1.054,7.07-2.928  c55.8-55.801,79.641-135.265,63.775-212.568L426.766,245.038z M491.817,20.233c1.372,38.226-4.793,75.944-17.726,111.162  l-63.264-63.264c-3.904-3.903-10.235-3.903-14.14,0c-3.904,3.904-3.904,10.235,0,14.14l69.188,69.188  c-14.343,31.6-34.354,60.733-59.441,85.82L275.941,367.772l-5.538-5.538c-0.004-0.004-126.125-126.126-126.125-126.126l27.49-27.49  l47.267,47.267c1.953,1.952,4.511,2.928,7.07,2.928c2.559,0,5.118-0.977,7.07-2.928c3.904-3.904,3.904-10.235,0-14.14  l-47.267-47.267l88.863-88.862C332.222,48.165,410.887,17.327,491.817,20.233z M248.703,101.939l1.217,0.25l-119.781,119.78  l-68.611-68.61C112.061,107.287,181.279,88.098,248.703,101.939z M173.181,359.968c0,5.61-2.184,10.885-6.147,14.851  c-0.151,0.15-0.305,0.298-0.515,0.497c-12.159,11.687-32.371,14.137-43.968,14.228c0.093-11.315,2.452-31.636,14.326-43.986  c0.14-0.148,0.282-0.296,0.435-0.448c3.968-3.968,9.244-6.154,14.857-6.154c5.609,0,10.881,2.183,14.848,6.145  c0.003,0.003,0.007,0.006,0.01,0.009c0.004,0.004,0.007,0.008,0.011,0.011C171,349.09,173.181,354.36,173.181,359.968z   M167.028,418.68c-0.001,0.002-0.002,0.003-0.004,0.004c-0.36,0.361-0.726,0.712-1.154,1.117  c-19.82,19.05-47.848,26.408-67.87,29.225c-15.409,2.169-28.859,2.135-36.739,1.755c-0.406-7.827-0.462-21.382,1.793-37.038  c2.862-19.865,10.268-47.698,29.339-67.533c0.348-0.368,0.7-0.734,1.065-1.099c8.314-8.314,18.953-13.453,30.45-14.84  c-0.242,0.231-0.49,0.455-0.728,0.693c-0.282,0.281-0.556,0.565-0.773,0.794c-10.067,10.471-16.611,25.618-18.922,43.806  c-0.905,7.122-0.976,13.258-0.876,17.152c0.2,7.755,0.702,10.608,3.465,13.372c2.876,2.866,5.934,3.204,13.304,3.382  c0.789,0.019,1.668,0.031,2.628,0.031c3.797,0,8.851-0.19,14.497-0.899c18.24-2.291,33.41-8.814,43.815-18.815  c0.282-0.268,0.562-0.537,0.839-0.813c0.003-0.003,0.005-0.006,0.008-0.008c0.23-0.23,0.447-0.469,0.67-0.704  C180.478,399.388,175.551,410.157,167.028,418.68z M234.337,384.14l-53.164-53.164c-0.002-0.002-0.003-0.003-0.005-0.005  s-0.003-0.003-0.005-0.005l-53.164-53.164l14.846-14.847l52.992,52.992c0.028,0.028,0.056,0.057,0.084,0.085l53.261,53.261  L234.337,384.14z M358.691,450.522l-68.611-68.61l119.78-119.78l0.25,1.216C423.95,330.77,404.762,399.988,358.691,450.522z"/><path d="M67.924,298.322c-3.904-3.902-10.235-3.903-14.139,0L2.929,349.178c-3.904,3.904-3.905,10.235,0,14.14  c1.953,1.952,4.511,2.928,7.07,2.928s5.118-0.977,7.07-2.928l50.856-50.855C71.829,308.557,71.829,302.227,67.924,298.322z"/><path d="M181.703,462.01l-32.874,32.874c-3.904,3.904-3.904,10.235,0,14.14c1.953,1.952,4.511,2.928,7.07,2.928  s5.118-0.977,7.07-2.928l32.874-32.874c3.904-3.904,3.904-10.235,0-14.14C191.938,458.106,185.607,458.106,181.703,462.01z"/><path d="M216.739,431.116c-2.63,0-5.209,1.061-7.069,2.93c-1.86,1.859-2.929,4.429-2.929,7.068c0,2.63,1.07,5.199,2.929,7.069  c1.86,1.86,4.439,2.919,7.069,2.919s5.209-1.06,7.069-2.919c1.87-1.87,2.929-4.438,2.929-7.069c0-2.64-1.06-5.209-2.929-7.068  C221.948,432.177,219.379,431.116,216.739,431.116z"/><path d="M253.052,265.768c-2.63,0-5.209,1.061-7.069,2.919c-1.86,1.87-2.929,4.449-2.929,7.079s1.07,5.209,2.929,7.069  c1.86,1.86,4.439,2.929,7.069,2.929c2.63,0,5.209-1.069,7.069-2.929c1.86-1.861,2.929-4.439,2.929-7.069s-1.07-5.209-2.929-7.079  C258.261,266.828,255.682,265.768,253.052,265.768z"/></g><g transform="matrix(0.17578125 0 0 0.17578125 217.5 217.5)" id="L1_9"><circle cx="256" cy="256" r="52" fill="#ffcac9"/><g><rect x="19px" y="445px" width="46px" height="46px" transform="matrix(-0.7071 0.7071 -0.7071 -0.7071 405.0078 770.266)" fill="#eceeff"/><rect x="445px" y="19px" width="46px" height="46px" transform="matrix(-0.7071 0.7071 -0.7071 -0.7071 831.0579 -258.2612)" fill="#eceeff"/></g><path d="M390.582,149.324c-21.37-25.967-50.737-43.052-82.691-48.105c-27.086-4.284-54.4,0.606-76.906,13.771  c-24.593,14.385-42.746,37.873-52.496,67.925c-12.094,37.273-8.049,72.528,11.389,99.269c15.336,21.099,39.135,34.556,62.784,35.724  c0.1,0.005,0.2,0.011,0.3,0.015c1.014,0.046,2.027,0.077,3.04,0.077c31.079,0,56.884-22.988,61.32-52.853  c4.814,17.241,3.949,37.024-2.78,57.767c-14.116,43.507-48.705,69.451-90.583,69.447c-5.441,0-11.014-0.439-16.672-1.334  C156.398,382.979,105.052,336.869,105.052,252c0-127.066,77.462-190.916,123.636-217.666c4.779-2.769,6.408-8.887,3.64-13.666  c-2.767-4.779-8.885-6.408-13.665-3.64C168.763,45.937,85.052,114.904,85.052,252c0,43.455,12.593,81.726,36.418,110.676  c21.37,25.967,50.737,43.052,82.691,48.105c6.399,1.012,12.809,1.512,19.167,1.512c20.555,0,40.551-5.229,57.739-15.283  c24.593-14.385,42.746-37.873,52.496-67.925c12.094-37.273,8.049-72.528-11.389-99.269c-15.371-21.146-39.242-34.617-62.943-35.733  c-0.03-0.002-0.06-0.003-0.09-0.005c-1.031-0.047-2.061-0.08-3.09-0.08c-0.006,0-0.011,0.001-0.017,0.001  c-0.011,0-0.023-0.001-0.034-0.001c-31.035,0-56.814,22.923-61.304,52.727c-4.775-17.211-3.897-36.948,2.816-57.641  c15.95-49.16,58.051-75.899,107.255-68.113C355.653,129.021,407,175.131,407,260c0,125.087-75.524,188.925-120.543,215.845  c-4.74,2.834-6.285,8.975-3.451,13.715c1.874,3.132,5.189,4.869,8.593,4.869c1.746,0,3.515-0.458,5.122-1.419  C345.376,463.917,427,394.957,427,260C427,216.545,414.407,178.274,390.582,149.324z M256,214c23.159,0,42,18.841,42,42  s-18.841,42-42,42s-42-18.841-42-42S232.841,214,256,214z"/><path d="M252.814,492.474l-0.214,0.077c-5.21,1.804-7.968,7.482-6.176,12.697c1.426,4.146,5.309,6.75,9.463,6.75  c1.076,0,2.171-0.175,3.245-0.543l0.467-0.165c5.195-1.874,7.888-7.604,6.015-12.8C263.74,493.294,258.009,490.601,252.814,492.474z  "/><path d="M255.673,20.184c1.136,0,2.291-0.195,3.42-0.606l0.356-0.127c5.21-1.803,7.97-7.48,6.178-12.696  c-1.793-5.22-7.488-7.996-12.706-6.208c0,0-0.229,0.078-0.67,0.238c-5.189,1.89-7.865,7.628-5.976,12.818  C247.753,17.663,251.588,20.184,255.673,20.184z"/><path d="M50.053,428.967c-1.876-1.875-4.419-2.929-7.071-2.929s-5.195,1.054-7.071,2.929L2.929,461.948  C1.054,463.823,0,466.367,0,469.019s1.054,5.196,2.929,7.071l32.981,32.981c1.876,1.875,4.419,2.929,7.071,2.929  s5.195-1.054,7.071-2.929l32.98-32.981c3.905-3.905,3.905-10.237,0-14.142L50.053,428.967z M42.981,487.858l-18.839-18.839  l18.839-18.839l18.839,18.839L42.981,487.858z"/><path d="M509.071,35.91L476.09,2.929C474.214,1.054,471.671,0,469.019,0s-5.195,1.054-7.071,2.929l-32.98,32.981  c-3.905,3.905-3.905,10.237,0,14.142l32.98,32.981c1.876,1.875,4.419,2.929,7.071,2.929s5.195-1.054,7.071-2.929l32.981-32.981  c1.875-1.875,2.929-4.419,2.929-7.071S510.946,37.785,509.071,35.91z M469.019,61.82L450.18,42.981l18.839-18.839l18.839,18.839  L469.019,61.82z"/><path d="M472,438h-14v-14.387c0-5.523-4.478-10-10-10s-10,4.477-10,10V438h-14c-5.522,0-10,4.477-10,10s4.478,10,10,10h14v14.387  c0,5.523,4.478,10,10,10s10-4.477,10-10V458h14c5.522,0,10-4.477,10-10S477.522,438,472,438z"/><path d="M40,74h14v14.387c0,5.523,4.478,10,10,10s10-4.477,10-10V74h14c5.522,0,10-4.477,10-10s-4.478-10-10-10H74V39.613  c0-5.523-4.478-10-10-10s-10,4.477-10,10V54H40c-5.522,0-10,4.477-10,10S34.478,74,40,74z"/><path d="M37.52,227.48c2.63,0,5.21-1.07,7.08-2.93c1.86-1.87,2.92-4.44,2.92-7.07c0-2.64-1.06-5.21-2.92-7.07  c-1.87-1.87-4.439-2.93-7.08-2.93c-2.63,0-5.21,1.06-7.069,2.93c-1.86,1.86-2.931,4.43-2.931,7.07c0,2.63,1.07,5.21,2.931,7.07  C32.319,226.41,34.89,227.48,37.52,227.48z"/><path d="M461.95,291.76c-1.86,1.87-2.931,4.44-2.931,7.07c0,2.64,1.07,5.21,2.931,7.07c1.859,1.87,4.439,2.93,7.069,2.93  s5.21-1.06,7.07-2.93c1.86-1.86,2.93-4.43,2.93-7.07c0-2.63-1.069-5.21-2.93-7.07s-4.44-2.93-7.07-2.93  C466.38,288.83,463.81,289.9,461.95,291.76z"/><path d="M79.694,387.22c-3.176-4.519-9.415-5.606-13.932-2.432c-4.519,3.176-5.607,9.413-2.432,13.932  c2.034,2.894,4.191,5.757,6.411,8.51c1.976,2.45,4.87,3.723,7.79,3.723c2.204,0,4.423-0.725,6.271-2.216  c4.299-3.467,4.974-9.763,1.507-14.062C83.366,392.264,81.477,389.755,79.694,387.22z"/><path d="M43.671,361.071c1.484,4.051,5.313,6.563,9.391,6.563c1.143,0,2.305-0.197,3.439-0.613c5.186-1.9,7.85-7.645,5.949-12.83  c-1.064-2.905-2.055-5.896-2.942-8.889c-1.569-5.295-7.138-8.314-12.43-6.745c-5.295,1.57-8.314,7.135-6.744,12.43  C41.34,354.38,42.463,357.773,43.671,361.071z"/><path d="M43.78,318.808c5.516-0.295,9.747-5.005,9.451-10.521c-0.166-3.103-0.25-6.284-0.25-9.454c0-5.523-4.478-10-10-10  s-10,4.477-10,10c0,3.525,0.094,7.065,0.279,10.523c0.285,5.333,4.698,9.466,9.977,9.466  C43.417,318.822,43.599,318.817,43.78,318.808z"/><path d="M292.885,437.463c2.132,0,4.281-0.679,6.1-2.082c2.781-2.145,5.543-4.418,8.208-6.758c4.15-3.644,4.561-9.962,0.917-14.112  c-3.645-4.15-9.963-4.562-14.112-0.917c-2.348,2.061-4.778,4.063-7.226,5.95c-4.374,3.373-5.186,9.652-1.813,14.025  C286.929,436.124,289.891,437.463,292.885,437.463z"/><path d="M327.152,401.347c3.146,0,6.241-1.48,8.188-4.248c1.993-2.834,3.953-5.788,5.824-8.778  c2.929-4.682,1.509-10.852-3.173-13.781c-4.684-2.932-10.854-1.509-13.782,3.173c-1.682,2.688-3.44,5.339-5.229,7.881  c-3.177,4.518-2.091,10.755,2.427,13.933C323.158,400.756,325.165,401.347,327.152,401.347z"/><path d="M120.04,425.67c-2.622-1.671-5.224-3.448-7.732-5.281c-4.457-3.26-10.714-2.287-13.974,2.171  c-3.26,4.458-2.288,10.715,2.171,13.975c2.851,2.084,5.808,4.104,8.787,6.003c1.666,1.061,3.525,1.568,5.364,1.568  c3.304,0,6.537-1.636,8.443-4.628C126.067,434.819,124.697,428.638,120.04,425.67z"/><path d="M254.556,438.234c-2.856,1.185-5.794,2.289-8.732,3.283c-5.231,1.77-8.037,7.446-6.268,12.677  c1.41,4.169,5.302,6.798,9.472,6.798c1.063,0,2.144-0.171,3.206-0.53c3.357-1.136,6.716-2.398,9.982-3.752  c5.102-2.115,7.522-7.966,5.407-13.067C265.508,438.539,259.654,436.119,254.556,438.234z"/><path d="M162.844,444.253c-3.018-0.781-6.045-1.666-8.997-2.629c-5.25-1.714-10.896,1.152-12.609,6.403  c-1.715,5.25,1.152,10.896,6.402,12.61c3.346,1.092,6.775,2.095,10.194,2.979c0.84,0.217,1.683,0.321,2.512,0.321  c4.449,0,8.509-2.991,9.675-7.498C171.403,451.092,168.19,445.637,162.844,444.253z"/><path d="M209.263,448.707c-3.058,0.195-6.17,0.293-9.249,0.293h-0.106c-5.522,0-10,4.477-10,10s4.478,10,10,10h0.106  c3.502,0,7.042-0.112,10.521-0.334c5.512-0.352,9.695-5.104,9.344-10.616C219.527,452.538,214.751,448.348,209.263,448.707z"/><path d="M468.329,150.929c-1.9-5.186-7.646-7.851-12.83-5.949c-5.186,1.9-7.85,7.645-5.949,12.83  c1.064,2.905,2.055,5.896,2.942,8.889c1.288,4.347,5.27,7.16,9.583,7.16c0.941,0,1.898-0.134,2.847-0.415  c5.295-1.57,8.314-7.135,6.744-12.43C470.66,157.62,469.537,154.227,468.329,150.929z"/><path d="M442.258,104.77c-3.467-4.299-9.765-4.974-14.062-1.507c-4.299,3.467-4.974,9.763-1.507,14.062  c1.944,2.412,3.834,4.92,5.616,7.456c1.947,2.77,5.044,4.251,8.19,4.251c1.986,0,3.993-0.591,5.741-1.819  c4.519-3.176,5.607-9.413,2.432-13.932C446.635,110.386,444.478,107.523,442.258,104.77z"/><path d="M468.22,193.192c-5.516,0.295-9.747,5.005-9.451,10.521c0.166,3.103,0.25,6.284,0.25,9.454c0,5.523,4.478,10,10,10  s10-4.477,10-10c0-3.525-0.094-7.065-0.279-10.523C478.444,197.129,473.718,192.886,468.22,193.192z"/><path d="M391.96,86.33c2.622,1.671,5.224,3.448,7.732,5.281c1.779,1.301,3.846,1.928,5.894,1.928c3.082,0,6.122-1.42,8.08-4.099  c3.26-4.458,2.288-10.715-2.171-13.975c-2.851-2.084-5.808-4.104-8.787-6.003c-4.659-2.968-10.84-1.598-13.808,3.06  C385.933,77.181,387.303,83.362,391.96,86.33z"/><path d="M176.659,114.901c-1.993,2.834-3.953,5.788-5.824,8.778c-2.929,4.682-1.509,10.852,3.173,13.781  c1.649,1.032,3.483,1.524,5.295,1.524c3.332,0,6.59-1.665,8.487-4.697c1.682-2.688,3.44-5.339,5.229-7.881  c3.177-4.518,2.091-10.755-2.427-13.933C186.071,109.296,179.837,110.384,176.659,114.901z"/><path d="M253.618,74.531c1.276,0,2.574-0.246,3.826-0.765c2.856-1.185,5.794-2.289,8.732-3.283c5.231-1.77,8.037-7.446,6.268-12.677  S265,49.77,259.767,51.538c-3.357,1.136-6.716,2.398-9.982,3.752c-5.102,2.115-7.522,7.966-5.407,13.067  C245.973,72.208,249.695,74.531,253.618,74.531z"/><path d="M349.156,67.747c3.018,0.781,6.045,1.666,8.997,2.629c1.031,0.336,2.076,0.497,3.105,0.497c4.21,0,8.127-2.68,9.504-6.899  c1.715-5.25-1.152-10.896-6.402-12.61c-3.346-1.092-6.775-2.095-10.194-2.979c-5.346-1.383-10.803,1.83-12.187,7.177  C340.597,60.908,343.81,66.363,349.156,67.747z"/><path d="M213.016,76.619c-2.781,2.145-5.543,4.418-8.208,6.758c-4.15,3.644-4.561,9.962-0.917,14.112  c1.977,2.251,4.74,3.402,7.519,3.402c2.343,0,4.695-0.818,6.594-2.485c2.348-2.061,4.778-4.063,7.226-5.95  c4.374-3.373,5.186-9.652,1.813-14.025C223.669,74.058,217.387,73.246,213.016,76.619z"/><path d="M302.092,63.314c0.214,0,0.43-0.007,0.646-0.021c3.058-0.195,6.17-0.293,9.249-0.293h0.106c5.522,0,10-4.477,10-10  s-4.478-10-10-10h-0.106c-3.502,0-7.042,0.112-10.521,0.334c-5.512,0.352-9.695,5.104-9.344,10.616  C292.459,59.246,296.859,63.314,302.092,63.314z"/></g></defs><g fi:class="KUsePattern"><pattern id="pattern_L1_0" width="350" height="350" patternUnits="userSpaceOnUse"><use xlink:href="#L1_0" x="-350" y="-350"/><use xlink:href="#L1_0" x="0" y="-350"/><use xlink:href="#L1_0" x="350" y="-350"/><use xlink:href="#L1_0" x="-350" y="0"/><use xlink:href="#L1_0" x="0" y="0"/><use xlink:href="#L1_0" x="350" y="0"/><use xlink:href="#L1_0" x="-350" y="350"/><use xlink:href="#L1_0" x="0" y="350"/><use xlink:href="#L1_0" x="350" y="350"/></pattern><rect x="0" y="0" width="100%" height="100%" fill="url(#pattern_L1_0)"/></g><g fi:class="KUsePattern"><pattern id="pattern_L1_1" width="350" height="350" patternUnits="userSpaceOnUse"><use xlink:href="#L1_1" x="-350" y="-350"/><use xlink:href="#L1_1" x="0" y="-350"/><use xlink:href="#L1_1" x="350" y="-350"/><use xlink:href="#L1_1" x="-350" y="0"/><use xlink:href="#L1_1" x="0" y="0"/><use xlink:href="#L1_1" x="350" y="0"/><use xlink:href="#L1_1" x="-350" y="350"/><use xlink:href="#L1_1" x="0" y="350"/><use xlink:href="#L1_1" x="350" y="350"/></pattern><rect x="0" y="0" width="100%" height="100%" fill="url(#pattern_L1_1)"/></g><g fi:class="KUsePattern"><pattern id="pattern_L1_2" width="350" height="350" patternUnits="userSpaceOnUse"><use xlink:href="#L1_2" x="-350" y="-350"/><use xlink:href="#L1_2" x="0" y="-350"/><use xlink:href="#L1_2" x="350" y="-350"/><use xlink:href="#L1_2" x="-350" y="0"/><use xlink:href="#L1_2" x="0" y="0"/><use xlink:href="#L1_2" x="350" y="0"/><use xlink:href="#L1_2" x="-350" y="350"/><use xlink:href="#L1_2" x="0" y="350"/><use xlink:href="#L1_2" x="350" y="350"/></pattern><rect x="0" y="0" width="100%" height="100%" fill="url(#pattern_L1_2)"/></g><g fi:class="KUsePattern"><pattern id="pattern_L1_3" width="350" height="350" patternUnits="userSpaceOnUse"><use xlink:href="#L1_3" x="-350" y="-350"/><use xlink:href="#L1_3" x="0" y="-350"/><use xlink:href="#L1_3" x="350" y="-350"/><use xlink:href="#L1_3" x="-350" y="0"/><use xlink:href="#L1_3" x="0" y="0"/><use xlink:href="#L1_3" x="350" y="0"/><use xlink:href="#L1_3" x="-350" y="350"/><use xlink:href="#L1_3" x="0" y="350"/><use xlink:href="#L1_3" x="350" y="350"/></pattern><rect x="0" y="0" width="100%" height="100%" fill="url(#pattern_L1_3)"/></g><g fi:class="KUsePattern"><pattern id="pattern_L1_4" width="350" height="350" patternUnits="userSpaceOnUse"><use xlink:href="#L1_4" x="-350" y="-350"/><use xlink:href="#L1_4" x="0" y="-350"/><use xlink:href="#L1_4" x="350" y="-350"/><use xlink:href="#L1_4" x="-350" y="0"/><use xlink:href="#L1_4" x="0" y="0"/><use xlink:href="#L1_4" x="350" y="0"/><use xlink:href="#L1_4" x="-350" y="350"/><use xlink:href="#L1_4" x="0" y="350"/><use xlink:href="#L1_4" x="350" y="350"/></pattern><rect x="0" y="0" width="100%" height="100%" fill="url(#pattern_L1_4)"/></g><g fi:class="KUsePattern"><pattern id="pattern_L1_5" width="350" height="350" patternUnits="userSpaceOnUse"><use xlink:href="#L1_5" x="-350" y="-350"/><use xlink:href="#L1_5" x="0" y="-350"/><use xlink:href="#L1_5" x="350" y="-350"/><use xlink:href="#L1_5" x="-350" y="0"/><use xlink:href="#L1_5" x="0" y="0"/><use xlink:href="#L1_5" x="350" y="0"/><use xlink:href="#L1_5" x="-350" y="350"/><use xlink:href="#L1_5" x="0" y="350"/><use xlink:href="#L1_5" x="350" y="350"/></pattern><rect x="0" y="0" width="100%" height="100%" fill="url(#pattern_L1_5)"/></g><g fi:class="KUsePattern"><pattern id="pattern_L1_6" width="350" height="350" patternUnits="userSpaceOnUse"><use xlink:href="#L1_6" x="-350" y="-350"/><use xlink:href="#L1_6" x="0" y="-350"/><use xlink:href="#L1_6" x="350" y="-350"/><use xlink:href="#L1_6" x="-350" y="0"/><use xlink:href="#L1_6" x="0" y="0"/><use xlink:href="#L1_6" x="350" y="0"/><use xlink:href="#L1_6" x="-350" y="350"/><use xlink:href="#L1_6" x="0" y="350"/><use xlink:href="#L1_6" x="350" y="350"/></pattern><rect x="0" y="0" width="100%" height="100%" fill="url(#pattern_L1_6)"/></g><g fi:class="KUsePattern"><pattern id="pattern_L1_7" width="350" height="350" patternUnits="userSpaceOnUse"><use xlink:href="#L1_7" x="-350" y="-350"/><use xlink:href="#L1_7" x="0" y="-350"/><use xlink:href="#L1_7" x="350" y="-350"/><use xlink:href="#L1_7" x="-350" y="0"/><use xlink:href="#L1_7" x="0" y="0"/><use xlink:href="#L1_7" x="350" y="0"/><use xlink:href="#L1_7" x="-350" y="350"/><use xlink:href="#L1_7" x="0" y="350"/><use xlink:href="#L1_7" x="350" y="350"/></pattern><rect x="0" y="0" width="100%" height="100%" fill="url(#pattern_L1_7)"/></g><g fi:class="KUsePattern"><pattern id="pattern_L1_8" width="350" height="350" patternUnits="userSpaceOnUse"><use xlink:href="#L1_8" x="-350" y="-350"/><use xlink:href="#L1_8" x="0" y="-350"/><use xlink:href="#L1_8" x="350" y="-350"/><use xlink:href="#L1_8" x="-350" y="0"/><use xlink:href="#L1_8" x="0" y="0"/><use xlink:href="#L1_8" x="350" y="0"/><use xlink:href="#L1_8" x="-350" y="350"/><use xlink:href="#L1_8" x="0" y="350"/><use xlink:href="#L1_8" x="350" y="350"/></pattern><rect x="0" y="0" width="100%" height="100%" fill="url(#pattern_L1_8)"/></g><g fi:class="KUsePattern"><pattern id="pattern_L1_9" width="350" height="350" patternUnits="userSpaceOnUse"><use xlink:href="#L1_9" x="-350" y="-350"/><use xlink:href="#L1_9" x="0" y="-350"/><use xlink:href="#L1_9" x="350" y="-350"/><use xlink:href="#L1_9" x="-350" y="0"/><use xlink:href="#L1_9" x="0" y="0"/><use xlink:href="#L1_9" x="350" y="0"/><use xlink:href="#L1_9" x="-350" y="350"/><use xlink:href="#L1_9" x="0" y="350"/><use xlink:href="#L1_9" x="350" y="350"/></pattern><rect x="0" y="0" width="100%" height="100%" fill="url(#pattern_L1_9)"/></g></svg>